<svg xmlns="http://www.w3.org/2000/svg" width="74.06" height="74.022" viewBox="0 0 74.06 74.022">
  <g id="autoswitch" transform="translate(-2.994 -2.974)">
    <path id="Path_2098" data-name="Path 2098" d="M53,40A13,13,0,1,0,40,53,13,13,0,0,0,53,40ZM31,40a9,9,0,1,1,9,9A9,9,0,0,1,31,40Z" fill="#fff"/>
    <path id="Path_2099" data-name="Path 2099" d="M46.42,38.41a2,2,0,0,0-2.83-2.82L39,40.17l-2.58-2.58a2,2,0,1,0-2.83,2.82l4,4a1.992,1.992,0,0,0,2.83,0Z" fill="#fff"/>
    <path id="Path_2100" data-name="Path 2100" d="M74.67,60.18l-4,.57A37,37,0,0,0,20,8.88a2,2,0,1,0,2.17,3.36A33,33,0,0,1,67.33,58.5l-.61-4.31a2.02,2.02,0,1,0-4,.56l1.27,9a2,2,0,0,0,2,1.72h.28l8.93-1.26a2.019,2.019,0,1,0-.55-4Z" fill="#fff"/>
    <path id="Path_2101" data-name="Path 2101" d="M57.85,67.76A33,33,0,0,1,12.67,21.5l.61,4.31a2,2,0,0,0,2,1.72h.29a2,2,0,0,0,1.7-2.26L16,16.3a2,2,0,0,0-2.26-1.7L4.78,15.86a2.019,2.019,0,1,0,.55,4l4-.57A37,37,0,0,0,60,71.12a2,2,0,1,0-2.17-3.36Z" fill="#fff"/>
  </g>
</svg>
