<svg xmlns="http://www.w3.org/2000/svg" width="73.425" height="73.678" viewBox="0 0 73.425 73.678">
  <g id="autosearch" transform="translate(-0.575 -0.5)">
    <g id="Group_720" data-name="Group 720" transform="translate(0.575 0.5)">
      <path id="Path_2102" data-name="Path 2102" d="M35.813,17.354A12.885,12.885,0,0,0,26.584,13.6a13.568,13.568,0,0,0-9.229,3.754,13.03,13.03,0,0,0,0,18.3,12.629,12.629,0,0,0,9.229,3.754h0a13.568,13.568,0,0,0,9.229-3.754A13.03,13.03,0,0,0,35.813,17.354Z" transform="translate(6.775 6.892)" fill="#fff"/>
      <path id="Path_2103" data-name="Path 2103" d="M73.041,68.86,59.588,55.407A33.5,33.5,0,0,0,33.934.5a32.751,32.751,0,0,0-23.621,9.855A33.481,33.481,0,0,0,55.364,59.787L68.817,73.24a3.024,3.024,0,0,0,4.38,0A3.165,3.165,0,0,0,73.041,68.86ZM55.208,36.948h-2.5a20.315,20.315,0,0,1-3.285,8.134L51.141,46.8a3.024,3.024,0,0,1,0,4.38,3.024,3.024,0,0,1-4.38,0L45.04,49.462a18.653,18.653,0,0,1-8.134,3.285v2.5a3.129,3.129,0,1,1-6.257,0v-2.5a19.45,19.45,0,0,1-8.134-3.285l-1.721,1.721a3.024,3.024,0,0,1-4.38,0,3.024,3.024,0,0,1,0-4.38l2.034-1.721a19.45,19.45,0,0,1-3.285-8.134h-2.5a3.129,3.129,0,1,1,0-6.257h2.5a20.315,20.315,0,0,1,3.285-8.134l-1.721-1.721a3.1,3.1,0,0,1,4.38-4.38l1.721,1.721a18.653,18.653,0,0,1,8.134-3.285V12.7a3.129,3.129,0,1,1,6.257,0v2.5a19.45,19.45,0,0,1,8.134,3.285l1.721-1.721a3.1,3.1,0,0,1,4.38,4.38l-1.721,1.721A19.45,19.45,0,0,1,53.018,31h2.5a3.138,3.138,0,0,1,3.129,3.129C58.649,35.853,56.929,36.948,55.208,36.948Z" transform="translate(-0.575 -0.5)" fill="#fff"/>
    </g>
  </g>
</svg>
