<svg xmlns="http://www.w3.org/2000/svg" width="30.678" height="26.521" viewBox="0 0 30.678 26.521">
  <g id="cart" transform="translate(-2.9 -2.5)">
    <g id="Group_902" data-name="Group 902" transform="translate(2.9 2.5)">
      <circle id="Ellipse_9" data-name="Ellipse 9" cx="1.926" cy="1.926" r="1.926" transform="translate(9.714 22.668)" fill="#e4e1e1"/>
      <circle id="Ellipse_10" data-name="Ellipse 10" cx="1.926" cy="1.926" r="1.926" transform="translate(22.956 22.668)" fill="#e4e1e1"/>
      <path id="Path_25022" data-name="Path 25022" d="M33.3,6.632a1.288,1.288,0,0,0-.945-.391H10.98l-.261-1.48A2.978,2.978,0,0,0,7.657,2.5H4.138A1.159,1.159,0,0,0,2.9,3.561,1.159,1.159,0,0,0,4.138,4.622H7.624a.639.639,0,0,1,.619.447l2.8,15.912a3.626,3.626,0,0,0,3.747,2.764H28.247a1.074,1.074,0,1,0,0-2.122H14.824a1.279,1.279,0,0,1-1.3-.977l-.293-1.591H29.811a1.2,1.2,0,0,0,1.205-.837L33.558,7.525A1.027,1.027,0,0,0,33.3,6.632ZM30.072,11.6H25.836l.2-3.238h4.789Zm-11.208,0-.2-3.238h4.887l-.2,3.238Zm4.366,2.122-.2,3.238H19.157l-.2-3.238Zm-7.037-5.36.2,3.238H11.925l-.586-3.238Zm-3.91,5.36h4.2l.2,3.238H12.869Zm13.227,3.238.2-3.238H29.55L28.8,16.961H25.511Z" transform="translate(-2.9 -2.5)" fill="#e4e1e1"/>
    </g>
  </g>
</svg>
