<svg xmlns="http://www.w3.org/2000/svg" width="73.248" height="71.319" viewBox="0 0 73.248 71.319">
  <g id="inhouse" transform="translate(-8.594 -10.473)">
    <g id="Group_726" data-name="Group 726">
      <g id="Group_725" data-name="Group 725">
        <path id="Path_2104" data-name="Path 2104" d="M81.208,35.7l-13.19-9.262-22.484-15.7a1.493,1.493,0,0,0-1.723.015L9.211,35.712a1.486,1.486,0,0,0-.617,1.207V80.3a1.489,1.489,0,0,0,1.489,1.489h70.27A1.489,1.489,0,0,0,81.842,80.3V36.92A1.493,1.493,0,0,0,81.208,35.7ZM78.863,78.814H11.572V37.682L44.7,13.787l13.033,9.075L78.863,37.694Z" fill="#fff"/>
        <path id="Path_2105" data-name="Path 2105" d="M47.79,43.982l-3.008,2.866L42.85,44.916a10.293,10.293,0,0,0-2.4-11.207A10.834,10.834,0,0,0,32.8,30.7a11.693,11.693,0,0,0-2.151.2,1.375,1.375,0,0,0-.718,2.326l4.884,4.883-.968,3.761-3.758.965L25.1,37.844a1.376,1.376,0,0,0-2.3.6,10.307,10.307,0,0,0,2.711,10.205A10.456,10.456,0,0,0,35.99,51.292L38,53.306l-6.956,6.626c-.023.022-.032.053-.053.075a1.208,1.208,0,0,0-.421.447L24.324,72A1.239,1.239,0,0,0,25.95,73.7l11.832-5.683a1.226,1.226,0,0,0,.467-.4.793.793,0,0,0,.078-.05l7.142-6.8,11.7,11.7a4.611,4.611,0,0,0,3.281,1.354h0a4.68,4.68,0,0,0,3.335-7.97L52.245,54.312l.292-.278L65.746,41.453a1.239,1.239,0,0,0,.043-1.751l-5.57-5.847a1.276,1.276,0,0,0-1.751-.043l-8.14,7.754ZM37.324,48.731a1.376,1.376,0,0,0-1.488-.3,7.816,7.816,0,0,1-10.652-6.609L28.7,45.336a1.374,1.374,0,0,0,1.315.36l5.3-1.362a1.377,1.377,0,0,0,.991-.99l1.367-5.311a1.374,1.374,0,0,0-.36-1.315l-3.162-3.162a7.766,7.766,0,0,1,4.353,2.1,7.585,7.585,0,0,1,1.469,8.937,1.374,1.374,0,0,0,.253,1.6l2.558,2.558L40,51.409Zm-.707,17.046c-.024.023-.033.055-.056.079l-8.24,3.957,4.353-8.038a.936.936,0,0,0,.081-.052l.025-.024,3.861,4.053ZM61.84,67.8a1.928,1.928,0,0,1-1.388,3.272h0a1.871,1.871,0,0,1-1.334-.548L47.463,58.87,49.952,56.5l0,0,.3-.29h0l-.3.286a2.977,2.977,0,0,0,.309-.278Zm-2.561-31.34,3.861,4.053L59.4,44.074l-3.884-4.031Zm-1.672,9.324-7.114,6.776-1.994,1.9-2.79,2.658-1.994,1.9-5.28,5.03-3.861-4.053,5.182-4.935,1.994-1.9L44.54,50.5l1.994-1.9,7.189-6.849Z" fill="#fff"/>
      </g>
    </g>
  </g>
</svg>
