<svg xmlns="http://www.w3.org/2000/svg" xmlns:xlink="http://www.w3.org/1999/xlink" width="375" height="349" viewBox="0 0 375 349">
  <defs>
    <clipPath id="clip-path">
      <rect id="Rectangle_79" data-name="Rectangle 79" width="375" height="349" transform="translate(0 140)" fill="#fff" stroke="#707070" stroke-width="1"/>
    </clipPath>
    <linearGradient id="linear-gradient" x1="0.612" y1="0.197" x2="0.382" y2="0.595" gradientUnits="objectBoundingBox">
      <stop offset="0" stop-color="#d11242" stop-opacity="0"/>
      <stop offset="1" stop-color="#d11242"/>
    </linearGradient>
    <linearGradient id="linear-gradient-2" x1="0.438" y1="0.375" x2="0.328" y2="0.511" gradientUnits="objectBoundingBox">
      <stop offset="0" stop-color="#d11242"/>
      <stop offset="0" stop-color="#d11242" stop-opacity="0.973"/>
      <stop offset="1" stop-color="#d11242" stop-opacity="0"/>
    </linearGradient>
    <linearGradient id="linear-gradient-3" x1="0.838" y1="0.77" x2="0.445" y2="-0.004" gradientUnits="objectBoundingBox">
      <stop offset="0" stop-color="#ed1c24"/>
      <stop offset="1" stop-color="#ed3524"/>
    </linearGradient>
    <linearGradient id="linear-gradient-4" y1="0.5" x2="1" y2="0.5" gradientUnits="objectBoundingBox">
      <stop offset="0" stop-color="#f34f33"/>
      <stop offset="1" stop-color="#ed0024"/>
    </linearGradient>
    <linearGradient id="linear-gradient-5" y1="0.5" x2="1" y2="0.5" gradientUnits="objectBoundingBox">
      <stop offset="0" stop-color="#f15a24"/>
      <stop offset="1" stop-color="#ff5715"/>
    </linearGradient>
    <linearGradient id="linear-gradient-7" x1="0.695" y1="0.982" x2="0.193" y2="-0.029" gradientUnits="objectBoundingBox">
      <stop offset="0" stop-color="#ed1c24"/>
      <stop offset="1" stop-color="#f15a24"/>
    </linearGradient>
  </defs>
  <g id="koihomepage" transform="translate(0 -140)" clip-path="url(#clip-path)">
    <g id="Group_900" data-name="Group 900" transform="translate(-65.274 18)">
      <g id="sun" transform="translate(92.074 130.77)">
        <path id="drop_bottom" data-name="drop bottom" d="M369.4,527.1l-21.507-5.766S320.1,527.1,329.906,540.365c5.08,6.871-26.514,10.508-21,10.974,4.9.414,43.157-2.8,41.731,21.135-19.615,13.826,59.932,19.738,59.932,19.738l5.746-27.047-46.922-24.8Z" transform="translate(-308.259 -365.978)" fill="url(#linear-gradient)"/>
        <path id="drop" d="M46.922,65.111l21.507,5.766s27.791-5.766,17.983-19.03c-5.08-6.871,26.514-10.508,21-10.974-4.9-.414-43.157,2.8-41.731-21.135C85.294,5.912,5.746,0,5.746,0L0,27.047l46.922,24.8Z" transform="matrix(0.94, 0.342, -0.342, 0.94, 198.562, 20.832)" fill="url(#linear-gradient-2)"/>
        <g id="sun-2" data-name="sun" transform="translate(15.443 0)">
          <path id="Path_1860" data-name="Path 1860" d="M604.894,372.645V357.38a2.172,2.172,0,0,1,1.7,1.874c.35,2.133.917,4.229,1.394,6.34.333-2.181.22-4.3.376-6.4.094-1.272-.624-3.594.644-3.594,1.475,0,1.2,2.3,1.332,3.716a15.165,15.165,0,0,0,.983,4.924,4.89,4.89,0,0,0-.272-4.838c-.23-2.387-.566-4.783.2-7.106,3.386,8.5,4.286,17.463,6.59,26.529,1.525-3.485,2.172-.553,3.345.22.719-2.638-.508-5.383,1.105-7.892,1.477,2.121,1.959,4.453,2.817,6.62.282.712.374,1.7,1.511,1.609.608-.051.658-.4.167-2.066a104.475,104.475,0,0,1-2.613-48.584,97.559,97.559,0,0,1,13.095-34.679c1.268.412,1.527-.763,1.979-1.4,2.511-3.527,5.286-6.839,8.045-10.167l1.057-.956.858-.86.514-1.116-.028.035.522-.522-.029.029.519-.519-.024.024.516-.516-.023.024.516-.516-.023.023.515-.515-.022.023.514-.515-.021.022.513-.513-.02.02.512-.513-.021.02.515-.515-.024.024.527-.728a.737.737,0,0,0,.249-.247l1.217-.518-.016.017a1.592,1.592,0,0,0,1-1l-.02.012.51-.509-.019.015,1.18-.508.309-.725,1.637-.75.814-.729,1.506-1.24-.036.02.517-.518-.011.023a8.749,8.749,0,0,0,3.46-2.474l-.015.01a2.361,2.361,0,0,0,1.493-1l-.013.011a10.376,10.376,0,0,0,3.952-2.467l-.014.006c1.106-.526,2.243-1,3.313-1.586a111.883,111.883,0,0,1,24.62-9.813c13.209-3.631,26.551-3.316,40-1.979q35.555,3.533,60.024,29.467c1.864,1.967,4.292,3.631,5.033,6.518l-.053.05c-1.995-1.945-3.953-3.929-5.99-5.829-31.465-29.342-67.722-37.2-108.616-24.171-.62.2-1.469.169-1.77,1.039.2.049.362.144.494.111.556-.138,1.107-.3,1.653-.48a103.686,103.686,0,0,1,45.967-3.977c24.764,3.2,45.912,13.838,62.5,32.678,19.945,22.658,28.732,49.172,24.751,79.181-7.467,56.283-62.206,93.837-117.558,81.189-17.576-4.016-32.448-13.033-46.062-24.466q-2.543-2.136-5.185-4.154c-.613-.471-1.324-1.348-2.129-.743-.74.556.087,1.336.242,2.015.036.16.094.314.142.472l-.265.223a9.95,9.95,0,0,1-3.229-2.977,259.453,259.453,0,0,1-16.324-21.271q-.683-1.041-1.366-2.08l-.572-.908-.5-.985-.1-.137.119.118.481,1,.39,1.062a4.967,4.967,0,0,0,1.034,2.427,97.759,97.759,0,0,0,23.581,31.2c22.7,20.061,49.179,28.966,79.381,26.416,23.025-1.944,43.458-10.564,60.245-26.316,30.788-28.891,41.419-64.439,30.826-105.3-13.769-53.1-68.016-85.986-121.579-74.7a58.246,58.246,0,0,0-15.907,5.114l15.876-4.5c9.24-1,18.482-1.866,27.76-.348-6.777.135-13.565-.079-20.318.7a110.013,110.013,0,0,0-35.137,10.479,1.367,1.367,0,0,1-.352.318c-2.356,1.207-4.865,2.145-6.9,3.918l-1.492,1c-1.4.358-2.889.154-4.179,1.137a118.028,118.028,0,0,0-11.592,9.769l-.5.436-.918.847-.539.638.038-.042-.529.529.025-.038-.515,1.011.014-.019-.506.5.009-.009-.5.5v0l-.482.482-.023.023-.735.5-.1-.053-.6,1.017a25.719,25.719,0,0,0-4.942,5.663,2.032,2.032,0,0,0-1.029,1.254l.036-.049a1.966,1.966,0,0,0-1.019,1.525l.035-.045c-.527.17-.748.494-.522,1.042l.042-.054c-.771-.09-.9.465-1.033,1.022l.029-.038c-.537.147-.734.585-.9,1.05l-.126.475.034-.049c-1.88,1.812-2.771,4.317-4.415,6.294-.941-.791.106-1.449.146-2.175l.749-1.152,3.573-5.545a16.563,16.563,0,0,0-4.211,5.486l-.541.818-2.008,3.387a97.13,97.13,0,0,0-5.1,10.158l-.88,1.08-.464-.336,1.216-3.6c.445-2.087,1.8-3.86,2.065-6.009l.548-1.435c1.747-.749,2.416-2.333,3.052-3.942l.739-1.1,3.294-5.136.07-.08c.67-.969,1.79-1.682,1.742-3.059l-.031.033c.48.129.548-.148.518-.523l-.023.028c.65-.026.844-.5,1-1.015l-.023.026c.4-.227.68-.512.52-1.022l-.029.04c.7-.266,1.365-.553,1.02-1.52l-.047.047c.527.167.612-.1.532-.537l-.042.043c.455.1.573-.137.534-.532l-.037.039c.406.048.526-.186.529-.536l-.03.042.626-.486a1.591,1.591,0,0,0,.875-1.023l-.03.029c.364-.242.8-.449.53-1.019l-.024.039c1.039.035,1.275-.8,1.641-1.5q6.836-6.618,14.14-12.715a128.952,128.952,0,0,1,30.11-16.744c9.045-3.009,18.408-4.627,27.779-6.224a94.623,94.623,0,0,0-28.355,5.693,97.942,97.942,0,0,0-30.3,16.555,63.211,63.211,0,0,0-9.659,8.231c-1.679,1.619-3.527,3.108-4.575,5.281l-.6.525c-1.405-.208-2.9,1.639-4.236-.191,14.48-16.157,31.635-28.37,52.264-35.464,4.408-1.246,8.744-2.772,13.313-3.382l.577-.244-.577-.243c-4.854.254-9.429,1.7-13.967,3.293a6.374,6.374,0,0,0-.966.184q-59.864,20.991-78,81.783a99.9,99.9,0,0,0-3.14,15.632c-.085.652.115,1.809-.908,1.626-.887-.159-.45-1.253-.4-1.916.109-1.387.322-2.768.551-4.142,5.01-30.069,19.334-54.777,43.05-73.884a115.78,115.78,0,0,1,57.714-24.907c.249.876-.812,1.285-.869,2.273,1.662-.1,2.592-.653,2.361-2.382,1.435-.573,2.967-.407,4.449-.616.37-.052,1.61.425.966-.887h19.2a2.189,2.189,0,0,0-.17.173c-.04.051-.1.153-.09.167.774.812,1.812.521,2.746.627,4.8.544,9.623.963,14.259,2.458l-.642.84.266.153.4-.993a53.714,53.714,0,0,1,10.439,2.662,1.958,1.958,0,0,0,1.373,2.277l1.488.032-.068-.037c.154.559.616.517,1.046.536l-.064-.034a4.032,4.032,0,0,0,3.021,1.014l-.063-.033a2.406,2.406,0,0,0,2.522,1.018l-.059-.031c2.534,1.993,5.661,2.84,8.438,4.364a171.177,171.177,0,0,1,16.731,10.458c.4.3.783.912,1.46.481l-.036-.03a2.628,2.628,0,0,0,2.5,2l-.038-.033a2.647,2.647,0,0,0,2.507,2l-.045-.04c-.13.482.106.6.529.533l-.036-.033c.342,1.323,1.485,1.846,2.5,2.5l-.038-.033c.261.344.346,1.039,1.039.518l-.048-.039c-.171.53.07.646.537.535l-.045-.045c-.117.476.087.63.538.538l-.045-.033c-.3.216-.14.454.065.524.483.166.466-.221.486-.533l1.022-.022c.312.259.647.5.933.78a118.507,118.507,0,0,1,29.036,46.9c.8,2.36,1.06,4.909,2.431,7.071l-.017-.075a5.136,5.136,0,0,0,.671,3.487c.351.579.409-.261.565-.5l.735-.009.475,1.941-.909.478c-.783,2.651.692,4.964.751,8.037.85-1.262.278-1.936.388-2.6l.766.026c.193,1.369.326,2.751.606,4.1.133.645-.369,1.721.93,1.791v25.114c-.367-.861-.587-.047-.867.076-1.149-1.659-.2-3.406-.217-5.113l-.032-6.8a52.351,52.351,0,0,0-.072-9.728l-.64.033.479,9.695-.041,6.889c-.677,2.032-1.2,4.053.408,5.927-.108,1.222-.161,2.452-.333,3.665-1.566,11.019-5.218,21.4-9.088,31.8-6.455,17.352-16.52,32.085-30.675,43.813C787.939,459,766.049,467.3,742.319,471.118c-.872.14-2.085-.363-2.5,1H714.213c.148-1.3-.953-.76-1.46-.891-2.521-.654-5.12-.925-7.679-1.382a125.737,125.737,0,0,1-65.443-33.131,109.8,109.8,0,0,1-33.836-62.849C605.708,373.367,605.959,372.476,604.894,372.645Zm43.727-97.606-.486.5-.475.51-.49.509c-.081.118-.258.282-.228.346.147.306.354.136.541.012q.251-.27.5-.541.249-.248.5-.5l.437-.546c.165-.175.353-.364.046-.553C648.92,274.753,648.738,274.948,648.621,275.039Zm-2.289,3.138.216-.391-.6.045-.415.507-.53,1.1.9-.725ZM650.481,437.3l-.484-.418c-3.519-3.027-6.152-6.984-9.951-9.368a48.874,48.874,0,0,0,9.59,9.714l.487.487.782.726c.388.24.644,1.133,1.2.476.218-.26-.455-.661-.88-.829Q650.852,437.7,650.481,437.3Zm36.177-180.838.25-.2c-.1.045-.206.09-.308.136l-.238.2Zm-10.362-.032,1-.476,1-.49-.058-.063q-.491.254-.981.509l-.956.519-.162.151Zm81.722-18.247c-.123.064-.425-.24-.374.182l.424-.133ZM655.864,446.69l-.559-.065.241.44a2.7,2.7,0,0,0,1.467,1.014l.868.638a5.047,5.047,0,0,0,2.074,1.334,7.851,7.851,0,0,0,3.354,1.942,7.467,7.467,0,0,0-3.06-2.219,5.1,5.1,0,0,0-2.1-1.379l-.865-.64Zm-8.553-6.659-.567-.232.194.569c.406.262.672,1.179,1.249.56C648.444,440.652,647.721,440.247,647.311,440.031Zm-30.577-49.692-.249-.029.189.1a1.855,1.855,0,0,0,.009.334c-.571.808.187,1.362.427,1.979a75.057,75.057,0,0,0,7.778,15.231c-2-5.476-4.972-10.529-6.858-16.044a2.269,2.269,0,0,0-.34-2.519c-.1-1.217-.656-1.972-1.974-1.962.941-1.407,1.611-2.725-.983-2.958.513-.964,1.121-1.926.076-2.931-.028-2.217-.971-4.255-1.257-6.421-.53-2.568-.686-5.226-2.085-7.6l1.361,7.572q.74,3.178,1.481,6.354c-.566,1.109-.762,2.165.438,3.019-.2,1.159-.573,2.379.991,2.946-.267,1.581.83,1.8,1.971,1.971Zm97.92-155.57c2.637.772,5.252-.3,7.882-.086l11.382.086c.25-.149.722-.322.71-.444-.056-.528-.545-.4-.91-.432-3.716-.122-7.434-.466-11.143.108l-7.575.406C714.813,234.458,714.377,234.271,714.654,234.769ZM645.712,439.184l.548.241-.173-.563-5.825-5.614-.421.439A36.08,36.08,0,0,0,645.712,439.184Zm39.752-187.259c-.766-.3-1.223,0-1.6.662A1.172,1.172,0,0,0,685.465,251.925ZM674.9,458.176c-1.07-.748-1.674-1.314-2.783-1.148A3.621,3.621,0,0,0,674.9,458.176Zm2.446,1.33c.348.294.506.52.713.581.357.1.916.753,1.006-.14C679.086,459.775,678.243,459.243,677.349,459.505ZM740.8,234.676a3.2,3.2,0,0,0-.811-.268c-.278,0-.449.2-.289.48a.483.483,0,0,0,.409.192A3.051,3.051,0,0,0,740.8,234.676Zm3.218.391-.232.25c.051.041.133.127.147.117a2.291,2.291,0,0,0,.249-.231Zm-56.493,16.246.4-.244c-.072-.113-.159-.327-.213-.32a1.288,1.288,0,0,0-.405.218C687.381,251.08,687.452,251.193,687.528,251.312Zm66.981-13.986c.024-.066.081-.143.064-.2s-.1-.091-.161-.135l-.117.317Zm-90.94,214.582-.2.35c.135.061.277.176.4.161.077-.009.131-.218.2-.337Zm-38.24-42.938c.053-.05.145-.1.148-.15s-.086-.107-.135-.161c-.053.05-.145.1-.147.15S625.281,408.917,625.329,408.97ZM675.7,458.576c-.048-.052-.094-.143-.144-.145s-.106.083-.159.13c.048.052.094.142.145.145S675.645,458.623,675.7,458.576Zm1,.5c-.05-.055-.1-.15-.151-.153s-.111.086-.167.135c.05.055.1.15.15.153S676.644,459.125,676.7,459.076Z" transform="translate(-604.894 -232.303)" fill="#d01242"/>
          <path id="Path_1861" data-name="Path 1861" d="M735.244,256.135c53.563-11.284,107.81,21.6,121.579,74.7,10.594,40.857-.037,76.405-30.826,105.3-16.786,15.752-37.22,24.372-60.245,26.316-30.2,2.55-56.682-6.355-79.381-26.416a97.745,97.745,0,0,1-23.58-31.2l.509-.5a259.48,259.48,0,0,0,16.324,21.271,9.917,9.917,0,0,0,3.231,2.976c.212.291.422.584.632.877l.122.026-.02-.124-.47-1c-.048-.157-.106-.312-.143-.471-.155-.678-.981-1.458-.242-2.015.8-.605,1.516.272,2.129.743q2.636,2.022,5.185,4.154c13.615,11.433,28.486,20.45,46.062,24.466,55.352,12.648,110.091-24.905,117.558-81.189,3.981-30.01-4.806-56.523-24.751-79.181-16.586-18.84-37.733-29.477-62.5-32.678a103.685,103.685,0,0,0-45.967,3.977c-.545.178-1.1.341-1.653.48-.131.033-.295-.063-.494-.111.3-.87,1.15-.842,1.77-1.039,40.894-13.032,77.151-5.171,108.616,24.171,2.037,1.9,4,3.884,5.99,5.829l.053-.05c-.741-2.887-3.169-4.551-5.033-6.518Q805.2,263.061,769.678,259.46c-13.451-1.336-26.792-1.652-40,1.979a111.885,111.885,0,0,0-24.62,9.813c-1.07.591-2.207,1.06-3.313,1.586.672-1.479,2.193-1.894,3.41-2.67.908-.578,1.9-1.015,2.011-2.269a1.352,1.352,0,0,0,.353-.321c1.505,1.461,2.694-.122,3.8-.6,9.195-3.984,18.6-7.189,28.581-8.521a3.436,3.436,0,0,0,2.76-1.356c6.753-.778,13.541-.564,20.318-.7-9.277-1.519-18.519-.649-27.759.346C735.223,256.543,735.233,256.339,735.244,256.135Z" transform="translate(-634.281 -243.275)" fill="#ab0112"/>
          <path id="Path_1862" data-name="Path 1862" d="M670.633,324.507c.1-1.157,1.716-1.788,1.1-3.19l-.035.049c.5.207.522-.218.66-.491.385-.252.593-.566.365-1.034l-.029.038c.714.033.89-.477,1.033-1.022l-.042.054a.818.818,0,0,0,.521-1.041l-.034.045c.82-.187,1.243-.64,1.019-1.525l-.036.049c.877.02,1.031-.553,1.029-1.254a25.724,25.724,0,0,1,4.942-5.663l.6-1.017.1.053.735-.5.023-.023.482-.482v0l.5-.5-.009.009.506-.5-.014.019.515-1.011-.025.038.529-.529-.038.042.539-.638.918-.847.5-.436a117.987,117.987,0,0,1,11.592-9.769c1.291-.983,2.784-.779,4.179-1.137.546,1.166-.859,1.571-.968,2.482l.013-.011a1.66,1.66,0,0,0-1.492,1l.015-.01a3.978,3.978,0,0,0-3.46,2.474l.011-.023-.517.518.036-.02a1.673,1.673,0,0,0-1.506,1.24l-.816.729a2.337,2.337,0,0,0-1.636.75q-.155.363-.31.725l-1.179.508.019-.015-.51.509.02-.012-1,1,.016-.017-1.217.518a.758.758,0,0,1-.249.248l-.527.727.024-.024L687,306.1l.021-.02-.512.513.02-.02-.513.513.021-.021-.514.514.023-.023-.515.515.023-.023-.516.516.023-.024-.516.516.024-.024-.519.519.028-.029-.522.522.028-.035-.514,1.116-.859.86-1.056.956c-2.759,3.327-5.534,6.64-8.045,10.167C672.16,323.744,671.9,324.919,670.633,324.507Z" transform="translate(-638.261 -262.753)" fill="#c00b30"/>
          <path id="Path_1863" data-name="Path 1863" d="M926.139,244.665A114.8,114.8,0,0,1,973.35,273.02l-1.022.022-.551.008.045.033a.514.514,0,0,0-.538-.538l.045.045a.513.513,0,0,0-.537-.535l.048.039c-.2-.458-.42-.892-1.039-.518l.038.034c-.131-1.532-1.286-2.044-2.5-2.5l.036.033c.02-.372-.186-.521-.529-.533l.045.04a3.557,3.557,0,0,0-2.507-2l.038.033a3.476,3.476,0,0,0-2.5-2l.036.03c-5.233-4.825-11.4-8.2-17.686-11.387a32.352,32.352,0,0,0-8.942-3.916l.059.031a2.824,2.824,0,0,0-2.522-1.018l.063.033a3.376,3.376,0,0,0-3.021-1.014l.064.034c-.126-.613-.614-.521-1.046-.536l.068.037c-.483-.621-.976-.742-1.488-.032A1.958,1.958,0,0,1,926.139,244.665Z" transform="translate(-767.946 -238.578)" fill="#c0103d"/>
          <path id="Path_1864" data-name="Path 1864" d="M746.318,258.979a128.956,128.956,0,0,0-30.111,16.744l-.763-.719a97.941,97.941,0,0,1,30.3-16.555Z" transform="translate(-661.006 -245.573)" fill="#4e0618"/>
          <path id="Path_1865" data-name="Path 1865" d="M650.1,338.181a93.791,93.791,0,0,1,12.668-17.493l.536-.5-.1-.005c1.333,1.829,2.831-.018,4.236.19q-.09.45-.179.9l.024-.039a.7.7,0,0,0-.53,1.019l.03-.029c-.9-.29-1.1.471-1.48.975l-.021.534.03-.042a.471.471,0,0,0-.529.536l.037-.038a.52.52,0,0,0-.534.532l.042-.043-.532.537.047-.047a1.481,1.481,0,0,0-1.02,1.52l.029-.04c-.542.154-.8.45-.52,1.022l.023-.026c-.908-.229-1.035.315-1,1.015l.023-.028c-.376-.026-.515.181-.518.523l.032-.033c-.968.21-1.3,1.558-2.477,1.39a33.436,33.436,0,0,1,5.237-6.832c.229-.272.714-.357.634-.833-.008-.05-.359-.042-.551-.061-1.177-.5-1.827.1-2.566.983-3.9,4.664-7.181,9.76-10.6,14.764Z" transform="translate(-627.838 -276.909)" fill="#a30e33"/>
          <path id="Path_1866" data-name="Path 1866" d="M788.756,260.381a3.436,3.436,0,0,1-2.76,1.356c-9.978,1.332-19.386,4.538-28.58,8.521-1.1.477-2.29,2.06-3.8.6A110.058,110.058,0,0,1,788.756,260.381Z" transform="translate(-680.383 -246.555)" fill="#c00b30"/>
          <path id="Path_1867" data-name="Path 1867" d="M777.548,253.111l-.575-.531a94.622,94.622,0,0,1,28.355-5.693C795.957,248.483,786.594,250.1,777.548,253.111Z" transform="translate(-692.236 -239.705)" fill="#26030c"/>
          <path id="Path_1868" data-name="Path 1868" d="M700.773,292.067l.763.719q-7.3,6.1-14.14,12.714l-.857.078c1.048-2.173,2.9-3.662,4.575-5.281A63.21,63.21,0,0,1,700.773,292.067Z" transform="translate(-646.335 -262.638)" fill="#59071c"/>
          <path id="Path_1869" data-name="Path 1869" d="M1082.2,394.109c.125-3.268-1.329-6.163-2.245-9.17-.925-3.04-2.128-6-3.209-8.987l.464-.6a98.227,98.227,0,0,1,6.944,21.655l-.735.009c-.542-.941-.234-2.234-1.236-2.985Z" transform="translate(-844.391 -304.912)" fill="#ab0e36"/>
          <path id="Path_1870" data-name="Path 1870" d="M629.968,555.222c1.886,5.515,4.857,10.568,6.857,16.044a75.057,75.057,0,0,1-7.778-15.231c-.241-.617-1-1.171-.427-1.979C629.227,554.263,629.06,555.364,629.968,555.222Z" transform="translate(-616.831 -395.616)" fill="#26030c"/>
          <path id="Path_1871" data-name="Path 1871" d="M962.462,262.247c6.288,3.186,12.453,6.563,17.686,11.387-.677.431-1.057-.185-1.46-.481A171.178,171.178,0,0,0,961.958,262.7Z" transform="translate(-786.13 -247.502)" fill="#26030c"/>
          <path id="Path_1872" data-name="Path 1872" d="M685.867,638.446a48.879,48.879,0,0,1-9.59-9.714c3.8,2.385,6.433,6.341,9.951,9.368Z" transform="translate(-641.126 -433.519)" fill="#3b0512"/>
          <path id="Path_1873" data-name="Path 1873" d="M793.527,258.418c-.01.2-.02.408-.031.614q-7.939,2.252-15.876,4.5A58.247,58.247,0,0,1,793.527,258.418Z" transform="translate(-692.565 -245.558)" fill="#b2041b"/>
          <path id="Path_1874" data-name="Path 1874" d="M782.17,244.178l-.654-.576c4.539-1.594,9.113-3.039,13.967-3.293v.487C790.914,241.406,786.578,242.932,782.17,244.178Z" transform="translate(-694.542 -236.367)" fill="#26030c"/>
          <path id="Path_1875" data-name="Path 1875" d="M855.179,236.188,843.8,236.1l.04-.682c3.709-.574,7.427-.23,11.144-.108Q855.081,235.749,855.179,236.188Z" transform="translate(-726.154 -233.722)" fill="#880b2a"/>
          <path id="Path_1876" data-name="Path 1876" d="M649.8,375.846l-.91-.014a97.144,97.144,0,0,1,5.1-10.158l.455.428Z" transform="translate(-627.225 -299.998)" fill="#1f0209"/>
          <path id="Path_1877" data-name="Path 1877" d="M745.791,282.308c-.113,1.254-1.1,1.691-2.011,2.269-1.217.776-2.738,1.191-3.41,2.67l.014-.006a2.049,2.049,0,0,1-1.493-1.014C740.926,284.453,743.436,283.515,745.791,282.308Z" transform="translate(-672.908 -257.684)" fill="#c00b30"/>
          <path id="Path_1878" data-name="Path 1878" d="M660.955,349.847c-1.739-1.737.475-2.563.933-3.756a2.38,2.38,0,0,1,2.361-1.38Z" transform="translate(-633.016 -289.358)" fill="#1f0209"/>
          <path id="Path_1879" data-name="Path 1879" d="M681.734,646.309a36.075,36.075,0,0,1-5.872-5.5l.422-.439,5.825,5.614Z" transform="translate(-640.915 -439.428)" fill="#3b0512"/>
          <path id="Path_1880" data-name="Path 1880" d="M953.765,258.21l-.5.448c-2.777-1.525-5.9-2.372-8.438-4.364A32.35,32.35,0,0,1,953.765,258.21Z" transform="translate(-777.432 -243.465)" fill="#3b0512"/>
          <path id="Path_1881" data-name="Path 1881" d="M619.605,514.46q-.68-3.786-1.361-7.572c1.4,2.375,1.555,5.034,2.085,7.6Z" transform="translate(-611.67 -371.675)" fill="#26030c"/>
          <path id="Path_1882" data-name="Path 1882" d="M1091.81,429.677c-.11.665.463,1.339-.387,2.6-.06-3.073-1.534-5.386-.751-8.037Z" transform="translate(-851.345 -329.725)" fill="#26030c"/>
          <path id="Path_1883" data-name="Path 1883" d="M1094.662,464.247l-.479-9.695.64-.034a52.351,52.351,0,0,1,.072,9.728Z" transform="translate(-853.243 -345.094)" fill="#4e0618"/>
          <path id="Path_1884" data-name="Path 1884" d="M648.2,374.306c-1.191-2.649.384-4.347,2.065-6.009C650,370.445,648.644,372.219,648.2,374.306Z" transform="translate(-626.663 -301.33)" fill="#880b2a"/>
          <path id="Path_1885" data-name="Path 1885" d="M664.424,351.481A16.564,16.564,0,0,1,668.635,346l-3.573,5.545Z" transform="translate(-635.11 -290.01)" fill="#26030c"/>
          <path id="Path_1886" data-name="Path 1886" d="M835.711,235.752l-.04.682c-2.63-.216-5.246.857-7.882.086l.348-.362Z" transform="translate(-718.029 -234.054)" fill="#59071c"/>
          <path id="Path_1887" data-name="Path 1887" d="M1092.046,429.185l-1.139-5.436.908-.478a26.747,26.747,0,0,1,1,5.94Z" transform="translate(-851.58 -329.233)" fill="#ab0e36"/>
          <path id="Path_1888" data-name="Path 1888" d="M653.933,361.32c.258-1.9.987-3.439,3.052-3.942C656.349,358.987,655.68,360.57,653.933,361.32Z" transform="translate(-629.785 -295.788)" fill="#1f0209"/>
          <path id="Path_1889" data-name="Path 1889" d="M624.7,541.306c2.594.233,1.924,1.551.983,2.959l.023-.021c-1.565-.567-1.187-1.788-.992-2.947Z" transform="translate(-614.859 -389.14)" fill="#ab0e36"/>
          <path id="Path_1890" data-name="Path 1890" d="M615.944,490.24l.711.086a4.89,4.89,0,0,1,.272,4.838A15.165,15.165,0,0,1,615.944,490.24Z" transform="translate(-610.503 -363.225)" fill="#880b2a"/>
          <path id="Path_1891" data-name="Path 1891" d="M736.357,290.265a2.049,2.049,0,0,0,1.492,1.014,10.376,10.376,0,0,1-3.952,2.467c.109-.911,1.514-1.316.968-2.482Z" transform="translate(-670.372 -261.723)" fill="#ab0112"/>
          <path id="Path_1892" data-name="Path 1892" d="M621.008,522.264l.724.03c.286,2.166,1.229,4.2,1.257,6.421l-.5-.1Z" transform="translate(-613.073 -379.479)" fill="#4e0618"/>
          <path id="Path_1893" data-name="Path 1893" d="M816.973,235.464l1.492-.109c.231,1.728-.7,2.277-2.361,2.382C816.162,236.749,817.222,236.34,816.973,235.464Z" transform="translate(-712.098 -233.852)" fill="#c0103d"/>
          <path id="Path_1894" data-name="Path 1894" d="M661.539,361.365l.024-.071c-1.444-.724-1.1,1.076-1.86,1.318l-.455-.428,2.009-3.386.428.393C661.645,359.915,660.6,360.573,661.539,361.365Z" transform="translate(-632.483 -296.508)" fill="#1f0209"/>
          <path id="Path_1895" data-name="Path 1895" d="M623.555,535.168l.5.1c1.045,1.005.437,1.967-.076,2.931l.014-.009C622.792,537.333,622.988,536.277,623.555,535.168Z" transform="translate(-614.139 -386.029)" fill="#ab0e36"/>
          <path id="Path_1896" data-name="Path 1896" d="M1094.921,493.188l-.114.908c-1.61-1.874-1.086-3.9-.408-5.927a1.7,1.7,0,0,1,.306-.094C1094.724,489.782,1093.772,491.529,1094.921,493.188Z" transform="translate(-853.021 -362.126)" fill="#ab0e36"/>
          <path id="Path_1897" data-name="Path 1897" d="M723.9,301.788a3.978,3.978,0,0,1,3.46-2.474A8.749,8.749,0,0,1,723.9,301.788Z" transform="translate(-665.296 -266.316)" fill="#ab0112"/>
          <path id="Path_1898" data-name="Path 1898" d="M1095.379,481.07a1.7,1.7,0,0,0-.306.094q.021-3.444.041-6.889h.233Z" transform="translate(-853.695 -355.121)" fill="#59071c"/>
          <path id="Path_1899" data-name="Path 1899" d="M626.853,547.3c1.318-.01,1.875.745,1.974,1.962l.019-.012c-1.141-.172-2.238-.39-1.971-1.971Z" transform="translate(-616.031 -392.177)" fill="#ab0e36"/>
          <path id="Path_1900" data-name="Path 1900" d="M666.971,339.725c1.18.168,1.509-1.18,2.477-1.39.048,1.377-1.073,2.09-1.742,3.059Z" transform="translate(-636.403 -286.122)" fill="#1f0209"/>
          <path id="Path_1901" data-name="Path 1901" d="M1009.823,294.3c1.209.457,2.364.969,2.5,2.5C1011.308,296.151,1010.165,295.628,1009.823,294.3Z" transform="translate(-810.425 -263.773)" fill="#26030c"/>
          <path id="Path_1902" data-name="Path 1902" d="M717,673.933a7.466,7.466,0,0,1,3.06,2.219,7.852,7.852,0,0,1-3.354-1.942Z" transform="translate(-661.648 -456.462)" fill="#3b0512"/>
          <path id="Path_1903" data-name="Path 1903" d="M998.825,285.312a3.476,3.476,0,0,1,2.5,2A2.628,2.628,0,0,1,998.825,285.312Z" transform="translate(-804.842 -259.209)" fill="#26030c"/>
          <path id="Path_1904" data-name="Path 1904" d="M1003.824,289.307a3.557,3.557,0,0,1,2.507,2A2.647,2.647,0,0,1,1003.824,289.307Z" transform="translate(-807.38 -261.237)" fill="#26030c"/>
          <path id="Path_1905" data-name="Path 1905" d="M630.169,553.815c-.908.142-.741-.959-1.348-1.165a1.849,1.849,0,0,1-.009-.334l.061-.071.975-.96-.019.012A2.269,2.269,0,0,1,630.169,553.815Z" transform="translate(-617.032 -394.209)" fill="#ab0e36"/>
          <path id="Path_1906" data-name="Path 1906" d="M766.861,272.028a1.172,1.172,0,0,1-1.6.662C765.638,272.023,766.095,271.724,766.861,272.028Z" transform="translate(-686.29 -252.406)" fill="#b2041b"/>
          <path id="Path_1907" data-name="Path 1907" d="M744.2,689.782a3.621,3.621,0,0,1-2.783-1.148C742.522,688.468,743.127,689.034,744.2,689.782Z" transform="translate(-674.187 -463.909)" fill="#4e0618"/>
          <path id="Path_1908" data-name="Path 1908" d="M1087.715,413.287c1,.751.694,2.044,1.236,2.985-.156.241-.214,1.08-.565.5A5.136,5.136,0,0,1,1087.715,413.287Z" transform="translate(-849.926 -324.165)" fill="#010000"/>
          <path id="Path_1909" data-name="Path 1909" d="M752.032,693.622c.894-.262,1.737.27,1.719.441-.091.893-.65.245-1.007.14C752.538,694.141,752.38,693.916,752.032,693.622Z" transform="translate(-679.577 -466.419)" fill="#4e0618"/>
          <path id="Path_1910" data-name="Path 1910" d="M879.7,236.844a3.054,3.054,0,0,1-.69.4.483.483,0,0,1-.409-.192c-.161-.278.011-.479.289-.48A3.2,3.2,0,0,1,879.7,236.844Z" transform="translate(-743.787 -234.472)" fill="#c0103d"/>
          <path id="Path_1911" data-name="Path 1911" d="M687.234,326.165l-.9.725.53-1.1Z" transform="translate(-646.232 -279.754)" fill="#59071c"/>
          <path id="Path_1912" data-name="Path 1912" d="M662.235,557.231l-.509.5a4.948,4.948,0,0,1-1.034-2.428l.178-.15Z" transform="translate(-633.215 -396.171)" fill="#b2041b"/>
          <path id="Path_1913" data-name="Path 1913" d="M933.813,250.255a3.376,3.376,0,0,1,3.021,1.014A4.032,4.032,0,0,1,933.813,250.255Z" transform="translate(-771.844 -241.394)" fill="#3b0512"/>
          <path id="Path_1914" data-name="Path 1914" d="M712.764,671.132a5.1,5.1,0,0,1,2.1,1.379l-.294.278a5.049,5.049,0,0,1-2.074-1.334Z" transform="translate(-659.51 -455.04)" fill="#3b0512"/>
          <path id="Path_1915" data-name="Path 1915" d="M939.819,252.278a2.823,2.823,0,0,1,2.522,1.018A2.406,2.406,0,0,1,939.819,252.278Z" transform="translate(-774.892 -242.436)" fill="#3b0512"/>
          <path id="Path_1916" data-name="Path 1916" d="M698.647,650.205c.425.167,1.1.569.88.829-.553.656-.809-.236-1.2-.476Q698.492,650.384,698.647,650.205Z" transform="translate(-652.319 -444.418)" fill="#3b0512"/>
          <path id="Path_1917" data-name="Path 1917" d="M690.647,654.148c.41.216,1.133.621.876.9-.578.619-.843-.3-1.249-.56Z" transform="translate(-648.23 -446.42)" fill="#3b0512"/>
          <path id="Path_1918" data-name="Path 1918" d="M887.188,237.914l.164.136a2.3,2.3,0,0,1-.249.231c-.014.01-.1-.076-.147-.117Z" transform="translate(-748.061 -235.151)" fill="#c0103d"/>
          <path id="Path_1919" data-name="Path 1919" d="M866.706,236.409q-.1-.439-.2-.877c.363.034.852-.1.908.433C867.429,236.086,866.956,236.259,866.706,236.409Z" transform="translate(-737.682 -233.942)" fill="#c0103d"/>
          <path id="Path_1920" data-name="Path 1920" d="M685.73,319.426l.857-.078c-.366.7-.6,1.538-1.641,1.5q.089-.451.179-.9Q685.429,319.689,685.73,319.426Z" transform="translate(-645.526 -276.485)" fill="#26030c"/>
          <path id="Path_1921" data-name="Path 1921" d="M772.476,270.322l-.217-.343a1.288,1.288,0,0,1,.405-.218c.054-.008.141.207.213.32C772.745,270.162,772.611,270.243,772.476,270.322Z" transform="translate(-689.844 -251.315)" fill="#b2041b"/>
          <path id="Path_1922" data-name="Path 1922" d="M680.972,325.24c.375-.5.582-1.265,1.48-.975a1.59,1.59,0,0,1-.876,1.023Z" transform="translate(-643.509 -278.948)" fill="#26030c"/>
          <path id="Path_1923" data-name="Path 1923" d="M678.841,341.225c.224.885-.2,1.337-1.019,1.525A1.966,1.966,0,0,1,678.841,341.225Z" transform="translate(-641.91 -287.589)" fill="#3b0512"/>
          <path id="Path_1924" data-name="Path 1924" d="M730.893,298.308a1.66,1.66,0,0,1,1.492-1A2.36,2.36,0,0,1,730.893,298.308Z" transform="translate(-668.847 -265.3)" fill="#ab0112"/>
          <path id="Path_1925" data-name="Path 1925" d="M908.5,242.16l-.214-.016.117-.317c.057.044.144.079.161.135S908.529,242.094,908.5,242.16Z" transform="translate(-758.89 -237.138)" fill="#c0103d"/>
          <path id="Path_1926" data-name="Path 1926" d="M709.221,669.058a2.7,2.7,0,0,1-1.466-1.014l.319-.376,1.419,1.066C709.4,668.842,709.312,668.95,709.221,669.058Z" transform="translate(-657.103 -453.282)" fill="#3b0512"/>
          <path id="Path_1927" data-name="Path 1927" d="M675.934,331.827a1.482,1.482,0,0,1,1.02-1.52C677.3,331.273,676.633,331.561,675.934,331.827Z" transform="translate(-640.952 -282.047)" fill="#1f0209"/>
          <path id="Path_1928" data-name="Path 1928" d="M719.884,306.541a1.673,1.673,0,0,1,1.506-1.24Z" transform="translate(-663.26 -269.355)" fill="#ab0112"/>
          <path id="Path_1929" data-name="Path 1929" d="M675.854,346.224c-.142.545-.319,1.055-1.033,1.022C674.951,346.689,675.083,346.134,675.854,346.224Z" transform="translate(-640.387 -290.121)" fill="#3b0512"/>
          <path id="Path_1930" data-name="Path 1930" d="M708.891,315.3l1-1A1.592,1.592,0,0,1,708.891,315.3Z" transform="translate(-657.68 -273.924)" fill="#ab0112"/>
          <path id="Path_1931" data-name="Path 1931" d="M680.847,338.779c0,.7-.152,1.273-1.029,1.254A2.031,2.031,0,0,1,680.847,338.779Z" transform="translate(-642.923 -286.347)" fill="#3b0512"/>
          <path id="Path_1932" data-name="Path 1932" d="M904.237,239.261h.023q-.2.5-.4.993l-.266-.153Z" transform="translate(-756.506 -235.834)" fill="#c0103d"/>
          <path id="Path_1933" data-name="Path 1933" d="M723.844,678.267l.4.174c-.065.119-.119.328-.2.337-.127.015-.269-.1-.4-.161Z" transform="translate(-665.168 -458.662)" fill="#3b0512"/>
          <path id="Path_1934" data-name="Path 1934" d="M672.939,336.295c-.031-.7.1-1.244,1-1.015C673.782,335.79,673.589,336.269,672.939,336.295Z" transform="translate(-639.43 -284.544)" fill="#1f0209"/>
          <path id="Path_1935" data-name="Path 1935" d="M714.905,310.05a2.337,2.337,0,0,1,1.636-.75Z" transform="translate(-660.732 -271.384)" fill="#ab0112"/>
          <path id="Path_1936" data-name="Path 1936" d="M809.88,240.8v-.487l.577.243Z" transform="translate(-708.939 -236.367)" fill="#c0103d"/>
          <path id="Path_1937" data-name="Path 1937" d="M928.934,248.789c.512-.71,1.005-.589,1.488.032Z" transform="translate(-769.368 -240.425)" fill="#3b0512"/>
          <path id="Path_1938" data-name="Path 1938" d="M663.867,357.135l.637.06-.749,1.152-.428-.393Z" transform="translate(-634.553 -295.664)" fill="#1f0209"/>
          <path id="Path_1939" data-name="Path 1939" d="M673.952,348.232c.228.468.02.782-.366,1.034l-.533.016C673.218,348.816,673.415,348.379,673.952,348.232Z" transform="translate(-639.49 -291.145)" fill="#3b0512"/>
          <path id="Path_1940" data-name="Path 1940" d="M690.99,333.238l1.056-.956Z" transform="translate(-648.594 -283.05)" fill="#ab0112"/>
          <path id="Path_1941" data-name="Path 1941" d="M915.511,244.25l-.425.132c-.051-.422.251-.118.374-.182Z" transform="translate(-762.336 -238.318)" fill="#c0103d"/>
          <path id="Path_1942" data-name="Path 1942" d="M677.263,344.229a.818.818,0,0,1-.521,1.042C676.515,344.723,676.736,344.4,677.263,344.229Z" transform="translate(-641.317 -289.113)" fill="#3b0512"/>
          <path id="Path_1943" data-name="Path 1943" d="M828.044,236.576l-.348.362C827.42,236.44,827.856,236.627,828.044,236.576Z" transform="translate(-717.937 -234.472)" fill="#c0103d"/>
          <path id="Path_1944" data-name="Path 1944" d="M931.818,249.278c.432.015.92-.077,1.046.536C932.434,249.8,931.972,249.837,931.818,249.278Z" transform="translate(-770.831 -240.919)" fill="#3b0512"/>
          <path id="Path_1945" data-name="Path 1945" d="M752.874,279.278l-1,.489-.04-.044.982-.508Z" transform="translate(-679.476 -256.114)" fill="#b2041b"/>
          <path id="Path_1946" data-name="Path 1946" d="M749.894,280.768l.955-.52.039.044-.995.476Z" transform="translate(-678.492 -256.639)" fill="#b2041b"/>
          <path id="Path_1947" data-name="Path 1947" d="M770.816,281.085l.309-.134-.25.2Z" transform="translate(-689.111 -256.995)" fill="#ab0112"/>
          <path id="Path_1948" data-name="Path 1948" d="M749.727,281.3l-.162.151.162-.151Z" transform="translate(-678.325 -257.174)" fill="#b2041b"/>
          <path id="Path_1949" data-name="Path 1949" d="M770.632,281.3l-.3.127.237-.2Z" transform="translate(-688.868 -257.135)" fill="#ab0112"/>
          <path id="Path_1950" data-name="Path 1950" d="M658.8,551.146l-.119-.118.1.137Z" transform="translate(-632.194 -394.079)" fill="#b2041b"/>
          <path id="Path_1951" data-name="Path 1951" d="M628.621,553.276l-.19-.1.25.029Z" transform="translate(-616.841 -395.17)" fill="#ab0e36"/>
          <path id="Path_1952" data-name="Path 1952" d="M659.89,553.3l.572.908-.177.15q-.2-.53-.391-1.061Z" transform="translate(-632.808 -395.233)" fill="#b2041b"/>
          <path id="Path_1953" data-name="Path 1953" d="M1014.813,299.17c.619-.374.835.06,1.039.518C1015.159,300.209,1015.074,299.514,1014.813,299.17Z" transform="translate(-812.957 -266.171)" fill="#26030c"/>
          <path id="Path_1954" data-name="Path 1954" d="M1018.653,302.3l.551-.008c-.02.312,0,.7-.486.533C1018.512,302.754,1018.349,302.516,1018.653,302.3Z" transform="translate(-814.821 -267.827)" fill="#26030c"/>
          <path id="Path_1955" data-name="Path 1955" d="M711.881,312.8l1.179-.508Z" transform="translate(-659.198 -272.905)" fill="#ab0112"/>
          <path id="Path_1956" data-name="Path 1956" d="M706.451,316.82l1.217-.518Z" transform="translate(-656.441 -274.939)" fill="#ab0112"/>
          <path id="Path_1957" data-name="Path 1957" d="M697.524,649.745l-.782-.726.359-.415.74.789Q697.685,649.571,697.524,649.745Z" transform="translate(-651.513 -443.605)" fill="#3b0512"/>
          <path id="Path_1958" data-name="Path 1958" d="M698.378,319.257l-.515,1.011Z" transform="translate(-652.082 -276.438)" fill="#880b2a"/>
          <path id="Path_1959" data-name="Path 1959" d="M683.845,323.339a.7.7,0,0,1,.53-1.019C684.641,322.89,684.209,323.1,683.845,323.339Z" transform="translate(-644.931 -277.993)" fill="#26030c"/>
          <path id="Path_1960" data-name="Path 1960" d="M711.6,670.8l-.868-.638.271-.324.865.64Z" transform="translate(-658.615 -454.381)" fill="#3b0512"/>
          <path id="Path_1961" data-name="Path 1961" d="M658.875,551.287l.5.985,0,0-.481-1Z" transform="translate(-632.293 -394.201)" fill="#b2041b"/>
          <path id="Path_1962" data-name="Path 1962" d="M692.54,325.214l-.6,1.017Z" transform="translate(-649.077 -279.462)" fill="#880b2a"/>
          <path id="Path_1963" data-name="Path 1963" d="M694.88,329.385l.514-1.116Z" transform="translate(-650.568 -281.013)" fill="#ab0112"/>
          <path id="Path_1964" data-name="Path 1964" d="M674.818,334.334c-.283-.573-.022-.869.52-1.022C675.5,333.822,675.214,334.107,674.818,334.334Z" transform="translate(-640.327 -283.572)" fill="#1f0209"/>
          <path id="Path_1965" data-name="Path 1965" d="M1017.79,301.282a.514.514,0,0,1,.538.538C1017.877,301.912,1017.672,301.758,1017.79,301.282Z" transform="translate(-814.452 -267.315)" fill="#26030c"/>
          <path id="Path_1966" data-name="Path 1966" d="M1016.767,300.288a.513.513,0,0,1,.537.535C1016.838,300.934,1016.6,300.818,1016.767,300.288Z" transform="translate(-813.921 -266.81)" fill="#26030c"/>
          <path id="Path_1967" data-name="Path 1967" d="M672.923,350.348l.533-.016c-.138.273-.164.7-.659.491Z" transform="translate(-639.36 -292.211)" fill="#020001"/>
          <path id="Path_1968" data-name="Path 1968" d="M1008.786,293.29c.343.012.549.162.529.533C1008.892,293.889,1008.656,293.772,1008.786,293.29Z" transform="translate(-809.88 -263.258)" fill="#26030c"/>
          <path id="Path_1969" data-name="Path 1969" d="M753.827,279.215l.059.063Z" transform="translate(-680.488 -256.114)" fill="#b2041b"/>
          <path id="Path_1970" data-name="Path 1970" d="M701.878,321.8l.513-.513Z" transform="translate(-654.12 -277.47)" fill="#ab0112"/>
          <path id="Path_1971" data-name="Path 1971" d="M915.852,244.248l.051.05Z" transform="translate(-762.728 -238.366)" fill="#c0103d"/>
          <path id="Path_1972" data-name="Path 1972" d="M697.37,321.271l-.506.5Z" transform="translate(-651.575 -277.461)" fill="#880b2a"/>
          <path id="Path_1973" data-name="Path 1973" d="M688.253,324.713l.606-.044-.216.391Z" transform="translate(-647.205 -279.185)" fill="#59071c"/>
          <path id="Path_1974" data-name="Path 1974" d="M694.089,324.3l-.735.5Z" transform="translate(-649.794 -278.999)" fill="#880b2a"/>
          <path id="Path_1975" data-name="Path 1975" d="M698.876,324.8l.516-.516Z" transform="translate(-652.597 -278.991)" fill="#ab0112"/>
          <path id="Path_1976" data-name="Path 1976" d="M687.412,325.267l.415-.507.389.346-.436.536Z" transform="translate(-646.778 -279.232)" fill="#59071c"/>
          <path id="Path_1977" data-name="Path 1977" d="M696.369,322.274l-.5.5Z" transform="translate(-651.071 -277.97)" fill="#880b2a"/>
          <path id="Path_1978" data-name="Path 1978" d="M697.875,325.8l.516-.516Z" transform="translate(-652.089 -279.498)" fill="#ab0112"/>
          <path id="Path_1979" data-name="Path 1979" d="M680.95,326.311l.6.048-.626.486Z" transform="translate(-643.487 -280.019)" fill="#1f0209"/>
          <path id="Path_1980" data-name="Path 1980" d="M690.746,321.651l.49-.509q.162.165.325.327l-.5.54Q690.907,321.826,690.746,321.651Z" transform="translate(-648.47 -277.395)" fill="#59071c"/>
          <path id="Path_1981" data-name="Path 1981" d="M696.87,326.8l.519-.519Z" transform="translate(-651.578 -280.006)" fill="#ab0112"/>
          <path id="Path_1982" data-name="Path 1982" d="M679.915,327.846a.47.47,0,0,1,.529-.536C680.441,327.66,680.321,327.894,679.915,327.846Z" transform="translate(-642.972 -280.526)" fill="#1f0209"/>
          <path id="Path_1983" data-name="Path 1983" d="M695.868,327.8l.522-.522Z" transform="translate(-651.07 -280.51)" fill="#ab0112"/>
          <path id="Path_1984" data-name="Path 1984" d="M678.906,328.853a.52.52,0,0,1,.534-.532C679.479,328.716,679.361,328.953,678.906,328.853Z" transform="translate(-642.46 -281.039)" fill="#1f0209"/>
          <path id="Path_1985" data-name="Path 1985" d="M700.877,322.8l.514-.514Z" transform="translate(-653.612 -277.977)" fill="#ab0112"/>
          <path id="Path_1986" data-name="Path 1986" d="M677.911,329.85l.532-.537C678.523,329.747,678.438,330.017,677.911,329.85Z" transform="translate(-641.955 -281.543)" fill="#1f0209"/>
          <path id="Path_1987" data-name="Path 1987" d="M690.822,322.533c-.187.124-.394.294-.541-.012-.031-.064.146-.228.227-.346Q690.669,322.351,690.822,322.533Z" transform="translate(-648.232 -277.92)" fill="#59071c"/>
          <path id="Path_1988" data-name="Path 1988" d="M702.88,320.8l.512-.513Z" transform="translate(-654.629 -276.962)" fill="#ab0112"/>
          <path id="Path_1989" data-name="Path 1989" d="M692.564,320.446l-.5.5q-.163-.161-.325-.326l.475-.51Q692.389,320.277,692.564,320.446Z" transform="translate(-648.976 -276.869)" fill="#59071c"/>
          <path id="Path_1990" data-name="Path 1990" d="M695.374,323.278l-.482.482Z" transform="translate(-650.574 -278.479)" fill="#880b2a"/>
          <path id="Path_1991" data-name="Path 1991" d="M703.878,319.8l.515-.515Z" transform="translate(-655.135 -276.452)" fill="#ab0112"/>
          <path id="Path_1992" data-name="Path 1992" d="M646.254,590.751c-.048-.054-.136-.109-.134-.161s.094-.1.147-.15c.049.054.137.109.135.161S646.308,590.7,646.254,590.751Z" transform="translate(-625.819 -414.083)" fill="#26030c"/>
          <path id="Path_1993" data-name="Path 1993" d="M692.706,319.59l.485-.5.3.295-.438.545Q692.879,319.762,692.706,319.59Z" transform="translate(-649.465 -276.354)" fill="#59071c"/>
          <path id="Path_1994" data-name="Path 1994" d="M671.938,337.86c0-.343.142-.55.518-.523C672.486,337.712,672.418,337.989,671.938,337.86Z" transform="translate(-638.924 -285.614)" fill="#1f0209"/>
          <path id="Path_1995" data-name="Path 1995" d="M696.114,647.757l.485.417-.359.415-.487-.487Z" transform="translate(-651.011 -443.176)" fill="#3b0512"/>
          <path id="Path_1996" data-name="Path 1996" d="M704.875,318.584l.527-.727Q705.138,318.219,704.875,318.584Z" transform="translate(-655.642 -275.728)" fill="#ab0112"/>
          <path id="Path_1997" data-name="Path 1997" d="M688.161,651.773l.173.563-.548-.241Z" transform="translate(-646.968 -445.214)" fill="#3b0512"/>
          <path id="Path_1998" data-name="Path 1998" d="M690.074,654.246l-.193-.569.567.232Z" transform="translate(-648.031 -446.181)" fill="#3b0512"/>
          <path id="Path_1999" data-name="Path 1999" d="M699.386,318.259l-.529.529Z" transform="translate(-652.587 -275.932)" fill="#880b2a"/>
          <path id="Path_2000" data-name="Path 2000" d="M707.506,667.978l-.241-.44.56.065Z" transform="translate(-656.855 -453.216)" fill="#3b0512"/>
          <path id="Path_2001" data-name="Path 2001" d="M693.692,318.82c.118-.092.3-.286.343-.259.307.189.119.378-.045.553Z" transform="translate(-649.965 -276.084)" fill="#59071c"/>
          <path id="Path_2002" data-name="Path 2002" d="M700.392,317.048l-.539.638Z" transform="translate(-653.093 -275.317)" fill="#880b2a"/>
          <path id="Path_2003" data-name="Path 2003" d="M699.877,323.8l.515-.515Z" transform="translate(-653.105 -278.483)" fill="#ab0112"/>
          <path id="Path_2004" data-name="Path 2004" d="M703.316,314.443l-.5.436Z" transform="translate(-654.594 -273.995)" fill="#880b2a"/>
          <path id="Path_2005" data-name="Path 2005" d="M710.884,313.8l.51-.509Z" transform="translate(-658.691 -273.413)" fill="#ab0112"/>
          <path id="Path_2006" data-name="Path 2006" d="M722.869,304.809l.517-.518Z" transform="translate(-664.775 -268.842)" fill="#ab0112"/>
          <path id="Path_2007" data-name="Path 2007" d="M748.367,691.658c-.053.047-.108.132-.159.129s-.1-.093-.145-.145c.053-.047.108-.132.159-.129S748.32,691.606,748.367,691.658Z" transform="translate(-677.563 -465.385)" fill="#4e0618"/>
          <path id="Path_2008" data-name="Path 2008" d="M750.387,692.665c-.056.049-.114.138-.167.135s-.1-.1-.15-.153c.056-.049.114-.138.167-.135S750.336,692.61,750.387,692.665Z" transform="translate(-678.581 -465.892)" fill="#4e0618"/>
          <path id="Path_2009" data-name="Path 2009" d="M655.292,365.009c.76-.241.416-2.042,1.86-1.318l-6.115,12.345-.48-.461.089-.822Z" transform="translate(-628.071 -298.905)" fill="#ab0e36"/>
          <path id="Path_2010" data-name="Path 2010" d="M626.215,455.892a46.716,46.716,0,0,1,1-14.719C627.016,446.1,626.464,451,626.215,455.892Z" transform="translate(-615.607 -338.32)" fill="#59071c"/>
          <path id="Path_2011" data-name="Path 2011" d="M647.454,390.927c-.378,2.241-1.519,4.19-2.422,6.24a20.258,20.258,0,0,1,2.286-7.16Z" transform="translate(-625.267 -312.349)" fill="#880b2a"/>
          <path id="Path_2012" data-name="Path 2012" d="M641.417,369.472a17.877,17.877,0,0,1-2.717,5,17.537,17.537,0,0,1,2.307-5.427Z" transform="translate(-622.053 -301.71)" fill="#880b2a"/>
          <path id="Path_2013" data-name="Path 2013" d="M612.069,453.642a11.02,11.02,0,0,1,.212-5.685C613.316,450.326,612.277,451.961,612.069,453.642Z" transform="translate(-608.397 -341.763)" fill="#d01242"/>
          <path id="Path_2014" data-name="Path 2014" d="M649,357.083a6.746,6.746,0,0,1-1.978,3.068c.089-1.51.964-2.4,1.514-3.421Z" transform="translate(-626.278 -295.459)" fill="#a30e33"/>
          <path id="Path_2015" data-name="Path 2015" d="M643.384,366.536c.445-.806.609-1.8,1.673-2.437a5.878,5.878,0,0,1-1.262,2.862Z" transform="translate(-624.43 -299.199)" fill="#a30e33"/>
          <path id="Path_2016" data-name="Path 2016" d="M677.689,325.468c.192.019.543.011.551.061.08.475-.405.561-.634.833Q677.648,325.915,677.689,325.468Z" transform="translate(-641.801 -279.591)" fill="#d01242"/>
          <path id="Path_2017" data-name="Path 2017" d="M649.81,389.909l-.136-.921.435-.988.48.461Z" transform="translate(-627.623 -311.33)" fill="#ab0e36"/>
          <path id="Path_2018" data-name="Path 2018" d="M636.649,383.413l-.319-.228.458-.518c.091.091.246.172.261.274A.367.367,0,0,1,636.649,383.413Z" transform="translate(-620.85 -308.624)" fill="#880b2a"/>
          <path id="Path_2019" data-name="Path 2019" d="M646.586,388.149c-.1.226-.024.679-.454.507-.1-.04-.012-.55-.01-.843Z" transform="translate(-625.801 -311.236)" fill="#d01242"/>
          <path id="Path_2020" data-name="Path 2020" d="M676.359,320.2l-.536.5Z" transform="translate(-640.896 -276.915)" fill="#d01242"/>
          <path id="Path_2021" data-name="Path 2021" d="M638.267,380.464c.05.058.141.119.138.173s-.1.1-.159.154c-.05-.058-.141-.119-.138-.173S638.21,380.515,638.267,380.464Z" transform="translate(-621.752 -307.505)" fill="#880b2a"/>
          <path id="Path_2022" data-name="Path 2022" d="M1071.592,363.912l-.464.6-5.447-11.358.4-.339A80.01,80.01,0,0,1,1071.592,363.912Z" transform="translate(-838.776 -293.47)" fill="#a30e33"/>
          <path id="Path_2023" data-name="Path 2023" d="M1055.695,336.2a10.6,10.6,0,0,1,2.518,3.823,3.661,3.661,0,0,1-.391.286l-2.407-3.837Q1055.556,336.339,1055.695,336.2Z" transform="translate(-833.565 -285.039)" fill="#880b2a"/>
          <path id="Path_2024" data-name="Path 2024" d="M1064.232,350.648a5.251,5.251,0,0,1-1.406-2.768,5.008,5.008,0,0,1,1.8,2.429Z" transform="translate(-837.327 -290.967)" fill="#a30e33"/>
          <path id="Path_2025" data-name="Path 2025" d="M957.081,253.254c-.2.087-.336.2-.444.178a.787.787,0,0,1-.391-.253c-.145-.162-.062-.281.169-.221A4.618,4.618,0,0,1,957.081,253.254Z" transform="translate(-783.193 -242.779)" fill="#59071c"/>
          <path id="Path_2026" data-name="Path 2026" d="M1060.694,343.965l1.049,1.58c-1.057-.154-1.177-.8-1.44-1.294A3.652,3.652,0,0,0,1060.694,343.965Z" transform="translate(-836.047 -288.979)" fill="#a30e33"/>
          <path id="Path_2027" data-name="Path 2027" d="M923.969,240.924l-.772-.326c.348-.384.668-.166.987.046C924.113,240.738,924.041,240.831,923.969,240.924Z" transform="translate(-766.456 -236.407)" fill="#59071c"/>
          <path id="Path_2028" data-name="Path 2028" d="M919.307,239.444l.359.139a1.648,1.648,0,0,1-.265.231c-.038.022-.183-.047-.181-.062A1.9,1.9,0,0,1,919.307,239.444Z" transform="translate(-764.438 -235.928)" fill="#59071c"/>
          <path id="Path_2029" data-name="Path 2029" d="M939.922,246.076l.8.341c-.048.06-.086.157-.146.173a.692.692,0,0,1-.8-.342Z" transform="translate(-774.873 -239.294)" fill="#59071c"/>
          <path id="Path_2030" data-name="Path 2030" d="M924.98,240.91l.717.43c-.382.388-.653.095-.932-.152C924.837,241.1,924.909,241,924.98,240.91Z" transform="translate(-767.251 -236.672)" fill="#59071c"/>
          <path id="Path_2031" data-name="Path 2031" d="M929.771,242.64c-.045.052-.1.155-.132.147a2.123,2.123,0,0,1-.349-.138c.044-.053.1-.156.132-.149A2.057,2.057,0,0,1,929.771,242.64Z" transform="translate(-769.548 -237.479)" fill="#59071c"/>
          <path id="Path_2032" data-name="Path 2032" d="M932.73,243.6l.2-.085.069.3a.6.6,0,0,1-.217-.044C932.742,243.744,932.745,243.657,932.73,243.6Z" transform="translate(-771.294 -237.993)" fill="#59071c"/>
          <path id="Path_2033" data-name="Path 2033" d="M935.752,244.816l-.165-.133c.063-.034.128-.1.188-.093s.111.081.166.125Z" transform="translate(-772.744 -238.539)" fill="#59071c"/>
          <path id="Path_2034" data-name="Path 2034" d="M939.382,246.089l-.388-.326c.176.052.351.1.528.155Z" transform="translate(-774.474 -239.135)" fill="#59071c"/>
          <path id="Path_2035" data-name="Path 2035" d="M1020.068,294.771l.809.7c-.087.087-.173.174-.258.262l-.844-.652Q1019.929,294.933,1020.068,294.771Z" transform="translate(-815.476 -264.01)" fill="#59071c"/>
          <path id="Path_2036" data-name="Path 2036" d="M1024.785,299.108l.138.375-.413-.088Z" transform="translate(-817.879 -266.211)" fill="#59071c"/>
          <path id="Path_2037" data-name="Path 2037" d="M1023.728,298.126l.5.484-.275.288-.54-.457C1023.52,298.337,1023.625,298.232,1023.728,298.126Z" transform="translate(-817.323 -265.713)" fill="#59071c"/>
          <path id="Path_2038" data-name="Path 2038" d="M1022.913,297.936q-.244-.253-.487-.508c.1-.1.2-.2.3-.294l.5.488C1023.123,297.728,1023.019,297.833,1022.913,297.936Z" transform="translate(-816.821 -265.209)" fill="#59071c"/>
          <path id="Path_2039" data-name="Path 2039" d="M1021.748,296.2l.507.461c-.1.1-.2.2-.3.294l-.46-.495C1021.575,296.372,1021.661,296.285,1021.748,296.2Z" transform="translate(-816.347 -264.734)" fill="#59071c"/>
          <path id="Path_2040" data-name="Path 2040" d="M1019.251,294.588l-.51-.475c.1-.1.205-.21.3-.319.165.162.33.324.5.484C1019.45,294.383,1019.353,294.488,1019.251,294.588Z" transform="translate(-814.951 -263.514)" fill="#59071c"/>
          <path id="Path_2041" data-name="Path 2041" d="M1018.209,293.649l-.516-.469c.1-.1.193-.2.289-.3q.264.227.53.452C1018.414,293.439,1018.314,293.545,1018.209,293.649Z" transform="translate(-814.419 -263.05)" fill="#59071c"/>
          <path id="Path_2042" data-name="Path 2042" d="M1017.558,293.106l-.131-.372.419.073C1017.751,292.907,1017.655,293.007,1017.558,293.106Z" transform="translate(-814.284 -262.976)" fill="#59071c"/>
          <path id="Path_2043" data-name="Path 2043" d="M970.4,259.75l-.13.035.022-.114Z" transform="translate(-790.347 -246.194)" fill="#59071c"/>
          <path id="Path_2044" data-name="Path 2044" d="M968.417,258.748l-.132.037.021-.117Z" transform="translate(-789.341 -245.686)" fill="#59071c"/>
          <path id="Path_2045" data-name="Path 2045" d="M966.339,257.63l.046.128-.124-.017Z" transform="translate(-788.314 -245.158)" fill="#59071c"/>
          <path id="Path_2046" data-name="Path 2046" d="M964.169,256.721l.169-.058-.019.155Z" transform="translate(-787.252 -244.667)" fill="#59071c"/>
          <path id="Path_2047" data-name="Path 2047" d="M962.165,255.72l.153-.051-.018.139Z" transform="translate(-786.235 -244.163)" fill="#59071c"/>
          <path id="Path_2048" data-name="Path 2048" d="M1055.236,336.163c-.152-.191-.29-.391-.013-.574.022-.014.192.2.293.3Q1055.378,336.028,1055.236,336.163Z" transform="translate(-833.388 -284.728)" fill="#880b2a"/>
          <path id="Path_2049" data-name="Path 2049" d="M704.169,609.264c-.21-.293-.42-.586-.632-.878l.263-.221q.236.5.471,1Z" transform="translate(-654.962 -423.08)" fill="#d01242"/>
          <path id="Path_2050" data-name="Path 2050" d="M704.922,610.2l.02.124-.122-.026Z" transform="translate(-655.614 -424.111)" fill="#d01242"/>
          <path id="Path_2051" data-name="Path 2051" d="M1011.913,338.247l-.053.05Z" transform="translate(-811.458 -286.077)" fill="#d01242"/>
        </g>
      </g>
      <g id="title" transform="translate(167.71 189.107)">
        <text id="solutions" transform="translate(63.102 110.91)" fill="#fff" font-size="39" font-family="Gotham-Light, Gotham" font-weight="300"><tspan x="0" y="0">solutions</tspan></text>
        <g id="Group_6" data-name="Group 6">
          <path id="Path_39" data-name="Path 39" d="M585.874,168.332l17.024-9.341-5.839-9.894-34.734,19.351V138.782H551.59v73.944h10.735V181.442l14.164-7.741c1.78,3.057,12.947,21.179,11.6,28.426a22.052,22.052,0,0,1-5.359,10.566H596.25c10.029-9.838-1.693-28.424-2.706-30.519S587.725,171.565,585.874,168.332Z" transform="translate(-551.59 -138.782)" fill="#071e30"/>
          <path id="Path_40" data-name="Path 40" d="M761.481,150.868v4.561H730.725v-4.561H719.99v63.425h10.735v-4.561h30.756v4.561h10.734V150.868Zm0,36.04v11.515H730.725V166.737h30.756v20.171Z" transform="translate(-654.099 -146.139)" fill="#071e30"/>
          <path id="Path_41" data-name="Path 41" d="M913.272,201.267a65.935,65.935,0,0,0,2.257-6.722,50.691,50.691,0,0,0,1.5-12.163V160.5h16.724v-11.31H917.027v-10.4H906.292v10.4H889.358V160.5h16.934v21.98a38.283,38.283,0,0,1-1.209,9.74,78.094,78.094,0,0,1-3.494,9.05H883.461v11.31h56.2v-11.31Z" transform="translate(-753.607 -138.781)" fill="#071e30"/>
        </g>
      </g>
    </g>
    <g id="Layer_12" data-name="Layer 12" transform="matrix(0.891, -0.454, 0.454, 0.891, -196.222, 343.978)">
      <g id="Group_901" data-name="Group 901" transform="translate(162.965 95.97)">
        <path id="Path_24989" data-name="Path 24989" d="M269.078,317.69l6.687-3.171,1.767,4.892,2.317-4.892,5.269-2.4,14.266-8,31.876-8.482-3.514,5.968-4.1,17.806-5.809,15.242-6.461,9.72-.451,2.749,7.4,19.761,8.729,10.9,5.326,15.267L316.2,387.724l-16.812-7.653L286.7,368.205l-9.164-15.862-11.558-16.721-2.851-5.848L236.685,306.51,228.5,290.522v-7.739l14.208,1.95-6.025,3.557-5.849.254,8,2.248,10.9,1.212,9.209-1.212-6.3,4.6-8.367,2.775H241.5l4.341,2.784,6.806.652,7.977-3.436L265,296.662l-1.882,8.682.912,11.382,3.4,3.456Z" transform="translate(-189.051 -181.282)" fill="url(#linear-gradient-3)"/>
        <path id="Path_24990" data-name="Path 24990" d="M219.455,221.74l15.853-8.5-4.6-4.013,23.19-2.772-6.1-3.393,11.8-.969,10.147-15.234,5.305-5.455,5.331,1.777,2.423,5.394h16.119l1.329,13v2.217l18.681-15.215,8.8-12.872,5.959-12.008-7.928-10.068-3.461,1.151-3.371,6.362-4.384,1.454-4.013-2.908-3.14-3.868-7.328-2.19-7.607-5.836-36.8,17.3-12.117,8.934-9.283,10.741-9.287,14.42Z" transform="translate(-185.527 -128.692)" fill="url(#linear-gradient-4)"/>
        <path id="Path_24991" data-name="Path 24991" d="M260.023,221.973l8.508-15.756,5.305-3.361,4.317,1.439,5.087,5.732H297.71l2.056,7.118L297.95,227.18l-5.211,6.3-4.469,1.212h2.979l2.914,12.253.2,12.813-3.694,10.057-2.4-4.292-2.527,6.972-4.431,7.962-7.246,5.129-1.693,1.52-.717-5.645,5.331-8.239,2.908-5.089-9.209,6.071-.487-4.39,1.214-5.316-7.074,4.362-6.363,1.606,1.806-4.514-8.926,3.244-9.755.618-4.341-2.784,10.663-2.533,6.3-5.089-19.629.242-6.138-1.726,9.773-4.333-16.721-2.765-4.67-3.884,9.517-9.345,9.538-5.465-5.031-.7,22.327-3.284-7.4-3.25,13.091-.869Z" transform="translate(-184.312 -150.144)" fill="url(#linear-gradient-5)"/>
        <path id="Path_24992" data-name="Path 24992" d="M341.392,263.748l8.349,2.051,5.241,2.616-1.1-15.732,3.294,2.657,5.491-8.756L361.3,224.4l-15.511,11.343L337,242.609l1.379,3.975,2.465,10.987Z" transform="translate(-231.319 -158.538)" fill="#e0e0e0"/>
        <path id="Path_24993" data-name="Path 24993" d="M379.051,213.561v13.178l4.8,1.647-.686-4.255,7.854,3.569v-6.726l-4.285-8.794,1.924-1.158,1.248-3.226-3.977-4.75Z" transform="translate(-247.701 -150.218)" fill="#f71414"/>
        <path id="Path_24994" data-name="Path 24994" d="M228.45,310.295l-5.406,6.069-3.589,14.455,5.177-4.414-1.012,9.714,2.182,10.589s4.52-3.657,4.632-4.09,5.189-8.6,5.189-8.6v5.076l5.131-11.365-12.083-17.986Z" transform="translate(-185.526 -191.785)" fill="#e0e0e0"/>
        <path id="Path_24995" data-name="Path 24995" d="M233.721,178.506H222.686l-4.3.772-28.719,10.7-13.171,7.661-.7,3.484,5.3-.586-8.055,9.469-7.5,17.71-1.655,6.488,11.586-2.927,5.848,2.9-6.731,2.254,3.752,1.986h10.7l.632,2.921-3.391,4.031,6.51-.476,6.282-2.032-4.186-4.333,4.186-5.5,2.9-12.813,10.568-22.841,14.014-15.117Z" transform="translate(-163.873 -140.658)" fill="url(#linear-gradient-5)"/>
        <path id="Path_24996" data-name="Path 24996" d="M247.387,124.866l1.324,8.607,4.965,8.386,3.862,2.913-6.731-.485,6.731,5.517,13.572,3.886,25.807-12.161-3.959-4.193-14.505-11.67-17.936-3.557h-1.766l2.317,6.179-8.386-2.734Z" transform="translate(-196.408 -118.686)" fill="url(#linear-gradient-7)"/>
        <path id="Path_24997" data-name="Path 24997" d="M303.514,124.558l.772-2.428,4.65,3.531-.251-6.179.251-2.979,7.88,3.421,3.581,3.445,1.1-2.287,6.179,4.028,2.621,8.455-8.8,3.894-4.083,1.444-4.951-5.338-9.945-7.572Z" transform="translate(-217.887 -116.503)" fill="#f71414"/>
        <path id="Path_24998" data-name="Path 24998" d="M339.056,146.033l4.3,4.281,5.909,2.825,7.869,1.987a29.709,29.709,0,0,0,.671,3.707c.22.331,5.668,1.35,5.668,1.35l7.022-7.75-6.4-6.4-18.576-2.448Z" transform="translate(-232.12 -127.054)" fill="#e0e0e0"/>
      </g>
      <g id="Layer_3" data-name="Layer 3" transform="translate(161.542 63.796)">
        <path id="Path_24999" data-name="Path 24999" d="M309.638,304.455a53.89,53.89,0,0,0-5.768-14.621c12.218-15.665,13.471-32.582,16.918-42.608s15.351-11.591,15.351-11.591-1.879-.314-8.459,1.253-14.725,3.759-21.931,5.012c-6.908,1.2-18.713,6.435-19.674,6.864.789-2.735,1.832-6.049,3.383-10,3.446-8.772-1.253-27.256-1.253-27.256,5.953-1.88,9.086-9.4,12.219-11.905s13.158-7.519,15.351-13.158a49.351,49.351,0,0,1,10.965-16.6c5.013-5.013,2.506-7.205,2.506-14.1s-10.339-6.892-12.845-9.712c-10.025-10.025-25.69-5.952-29.762-3.133s-13.158,6.579-31.016,15.351-38.847,23.5-41.981,59.839a.782.782,0,0,0-.006.084c-.273.295-.533.583-.771.868l-.022.025-.485.6c-3.243,4.17-6.037,3.873-6.234,3.848.2.087,3.277,1.419,7.553,2.81,3,31.414,38.118,50.286,41.006,53.175,3.133,3.133,21.617,43.547,43.234,51.379s28.822,11.279,28.822,11.279-2.929-15.361-5.811-19.205S311.8,313.34,309.638,304.455Zm-55.484-142.2c21.858-11.049,29.358-13.211,35.214-17.052s21.711-.482,24.355,4.083c1.2,2.4,7.685,1.92,10.088,5.285s.721,5.523.962,8.888-8.167,8.164-9.609,13.208S313,187.959,305.8,191.32s-9.367,6.726-9.367,6.726,4.615-17.052-7.061-15.132-9.994,1.682-12.876-3.6-12.729-.483-15.132,5.764a76.607,76.607,0,0,1-7.206,13.211s-9.85,0-16.814,3.6c0,0,5.285-.241,8.167,1.2,0,0-17.322.658-26.2,5.332A65.177,65.177,0,0,1,254.154,162.256Zm-34.928,46.583a12.97,12.97,0,0,1,5.144.016s-2.8,2.1-5.83,4.708Q218.8,211.167,219.226,208.839Zm19.882,1.106c-2.525-2.246-8.844-2.525-8.844-2.525,6.817-2.143,24.286-2.528,24.286-2.528-2.246-2.246-8.844-3.929-8.844-3.929,8.844-1.544,19.932,0,26.389,0s8.75-1.356,8.75-1.356c-3.462-1.215-22.645-1.312-22.645-1.312,1.823-1.263,4.07-7.438,7.018-13.193s8.562-6.879,9.965-2.105,4.07,4.211,6.877,4.631,8.985-3.368,10.949,0-.7,9.966-.7,9.966A11.549,11.549,0,0,1,282,188.8c-.921,9.358,10.044,12.516,10.044,12.516a9.252,9.252,0,0,1-5.338,6.429c-4.593,2.008-1.663-3.675-1.663-3.675s-2.24-.116-3.619,3.1c-2.7,5.395,4.937,4.649,4.937,4.649,5.8,21.125-.056,30.768-.056,30.768-.288-2.87-2.585-6.2-2.585-6.2-.862,10.849-6.657,19.117-9.7,20.379a14.95,14.95,0,0,0-5.282,4.189c-.229-3.5,1.034-4.994,4.192-8.838,6.6-7.979,4.822-13.377,4.822-13.377-.4,2.124-5.11,6.316-7.234,7.29a7.3,7.3,0,0,0-3.1,2.7c0-.974.173-.974,1.548-3.844s-.52-7.012-.52-7.012c-3.086,4.775-12.491,6.548-12.491,6.548a10.852,10.852,0,0,1,4.352-5.144s-1.967-.279-9.828,3.23-14.035,1.121-14.035,1.121C254.687,238.58,254,230.719,254,230.719c-8.976,7.44-28.224,2.246-28.224,2.246,11.51-2.105,11.789-5.054,11.789-5.054-14.6-.983-23.3-5.592-23.3-5.592C222.123,210.13,239.107,209.946,239.107,209.946Zm-20.681,17.782a44.455,44.455,0,0,0,13.628,1.786,34.962,34.962,0,0,1-13.011,2.243A38,38,0,0,1,218.426,227.728ZM321.89,336.4s-3.844-4.086-13.932-6.485-18.735-4.086-30.746-21.138a194.25,194.25,0,0,1-18.5-32.429s-32.582-16.447-39.277-42.867c3.988,2.161,12.234,5.056,26.307,3.474,0,0-4.671,4.6-16.094,5.048a15.155,15.155,0,0,0,11.771,5.044c7.926,0,9.85-3.6,12.97-4.565a15.363,15.363,0,0,1-4.8,5.764,27.29,27.29,0,0,0,17.451-6.3,38.522,38.522,0,0,1-2.246,7.159c-1.263,2.525.823,5.614.823,5.614s1.845-4.913,5.073-6.316A11.643,11.643,0,0,0,275,245.037c-1.059,1.478-3.381,4.7-5.856,8-3.368,4.492-2.1,12.913-2.1,12.913s4.351-6.6,8.985-7.3,8.421-16.423,8.421-16.423.009,8.512-.627,14.082c.31-.774.6-1.7.915-2.791,0,0,1.967-.792,6.986-3.124,12.907-6.1,28.854-7.983,28.854-7.983-2.788,2.647-5.577,9.756-7.528,20.909s-14.775,27.043-14.775,27.043c3.9,3.205,4.878,8.362,6.829,16.727s5.3,10.035,11.291,16.726S321.89,336.4,321.89,336.4Z" transform="translate(-178.91 -93.345)" fill="#071e30"/>
        <path id="Path_25000" data-name="Path 25000" d="M216.337,270.352c.15-.194.313-.395.485-.6Z" transform="translate(-182.889 -144.034)" fill="#071e30"/>
        <path id="Path_25001" data-name="Path 25001" d="M365.951,224.4a38.009,38.009,0,0,1,1.39,16.842c-1.3,9.628-5.717,16.347-5.917,20.458,0,0-1.906-1.3-2.608-5.114,0,0,.3,4.613.7,7.12a38.557,38.557,0,0,1-.1,10.21s-2.608-5.1-6.218-6.3-6.125-1.109-8.578-2.309v-3.9s8.377-.707,11.085,4.107c0,0,.3-3.1-.8-10.175s4.613-15.5,4.613-15.5-1,8.324,1.3,13.238c0,0,3.61-7.221,3.711-12.135s.31-12.255-1.2-14.4" transform="translate(-232.866 -126.364)" fill="#071e30"/>
        <path id="Path_25002" data-name="Path 25002" d="M282.28,315.816c-3.216,6.94,1.289,17.783,1.289,17.783,1.211-.385,4.9-1.542,6.167-2.037s6.31-2.585,6.31-2.585l1.986-2.366-1.361-2.1a45.7,45.7,0,0,1-9.641,3.823,22.748,22.748,0,0,1-2.092-13.007l-.566-1.709Z" transform="translate(-208.128 -161.121)" fill="#071e30"/>
        <path id="Path_25003" data-name="Path 25003" d="M374.008,156.391s-3.979-2.452-5.18.98-1.716,4.72-6.178,6.093-6.693-1.888-7.542-4.377-4.214-2.574-7.647-2.917-8.4-6.428-8.4-6.428l2.878-1.71s4.584,5.993,9.3,5.993,7.122,4.462,8.41,6.007,5.663.772,6.35-2.317,2.285-3.418,2.285-3.418l6.049.576Z" transform="translate(-230.697 -96.612)" fill="#071e30"/>
        <path id="Path_25004" data-name="Path 25004" d="M391.963,202.856s-.187,3.353,10.721,8.012,13.181,20.566,13.181,20.566-3.108-15.436-14.481-19.11-10.51-7.691-10.51-7.691" transform="translate(-250.878 -117.971)" fill="#071e30"/>
        <path id="Path_25005" data-name="Path 25005" d="M370.541,117.754s-.952-10.9-13.653-20.718-10.54-21.98-5.675-33.239c0,0-8.288,20.629,4.594,30.177s16.831,16.665,17.558,23.781" transform="translate(-233.946 -63.796)" fill="#071e30"/>
        <path id="Path_25006" data-name="Path 25006" d="M403.123,147.042a37.7,37.7,0,0,0,9.248-10.353c3.414-6.058,6.572-8.774,10.17-8.738,0,0-5.1-.735-11.492,7.746s-10.744,9.5-10.744,9.5" transform="translate(-254.558 -88.783)" fill="#071e30"/>
        <path id="Path_25007" data-name="Path 25007" d="M383.017,214.6s6.367,14.689,0,38.072-4.817,33.072,2.158,43.536c0,0-12.66-11.509-5.167-39.989s.551-37.4.551-37.4" transform="translate(-245.727 -122.547)" fill="#071e30"/>
        <path id="Path_25008" data-name="Path 25008" d="M391.268,213.353c.241,3.023-.371,4.206-.371,4.206a4.337,4.337,0,0,0-1.973-1.361,21.842,21.842,0,0,1,2.993,17.487c-1.021-2.246-6.872-4.083-6.872-4.083.272,1.293,2.45,4.559,2.45,4.559-4.219-1.021-5.988-2.79-5.988-2.79l-1.436-2,1.436-.59a8.577,8.577,0,0,0,1.633,1.224s.234-1.466-1.157-4.49c0,0,6.668,1.837,8.641,4.49,0,0,1.633-6.872-4.559-16.126a6.05,6.05,0,0,1,2.994.544,6.807,6.807,0,0,0,.246-2.321l1.7-.314Z" transform="translate(-246.676 -121.452)" fill="#071e30"/>
        <path id="Path_25009" data-name="Path 25009" d="M294.784,138.655s-.749-.485-13.368-10.928-30.372-6.614-30.372-6.614a8.249,8.249,0,0,1,5.482,4.264c-3.481-2.524-14.62-3.22-14.62-3.22,1.479,1.218,2.262,3.22,3.394,10s7.31,11.505,7.31,11.505a10.58,10.58,0,0,1-6.875-4.676c2.7,11.61,17.965,14.846,17.965,14.846l3.787-.8.168-1.313c-10.889-1.156-16.09-6.677-16.09-6.677,5.4,1.741,7.136-.348,7.136-.348-5.656-1.566-10.791-8.442-11.139-12.538a36.852,36.852,0,0,0-1.305-7.149c6.962-.367,13.141,5.154,13.141,5.154,1.392-2.872-.783-7.136-.783-7.136,11.662-.348,17.666,4.178,21.843,7.658s11.955,9.131,11.955,9.131h2.37Z" transform="translate(-192.85 -85.858)" fill="#071e30"/>
        <path id="Path_25010" data-name="Path 25010" d="M331.02,129.134c1.684-6.585-5.924-10.313-9.5-11.448s-2.795-2.009-2.795-2.009a2.163,2.163,0,0,0,0,2.533c-.7-1.485-3.668-3.755-6.9-3.93s-5.764-3.231-5.764-3.231a5.812,5.812,0,0,1,1.135,4.977,16.636,16.636,0,0,0,0,5.981c-3.231-1.966-3.493-6.243-3.493-6.243a8,8,0,0,0-1.774,6.243l-.085,1.023,2.924,1.043c-.483-.4-.132-2.021-.132-2.021.7,1.851,6.839,3.318,6.839,3.318a10.229,10.229,0,0,1-1.572-8.995c1.4,1.572,5.065.4,7.336,4.192,4.279,7.685,8.127,5.764,8.127,5.764-4.274-3.755-3.411-4.976-3.411-4.976a9.224,9.224,0,0,1,6.822,8.329l1.262,1.756Z" transform="translate(-216.199 -82.205)" fill="#071e30"/>
        <path id="Path_25011" data-name="Path 25011" d="M259.146,355.311s-21.687,21.04-6.639,37.293,28.893,0,38.524-5.418,27.388-19.713,40.48-18.66,24.324,5.276,12.791,26.786c0,0,13.092-23.626-9.781-24.228-10.534-.15-18.359.3-50.11,24.529s-56.624-19.261-28.324-42.661" transform="translate(-193.555 -176.444)" fill="#071e30"/>
        <path id="Path_25012" data-name="Path 25012" d="M239.56,332.21c-3.377,12.854-7.555,13.137-7.555,13.137,1.754-2.888,1.066-6.807,1.066-6.807s-1.169,6.085-3.954,7.838-6.5,9.592-6.5,9.592,1.96-3.713.206-9.7-1.547-15.059-1.547-15.059c-3.61,3.4-3.92,8.768-3.92,8.768-4.125-14.647,6.271-27.433,6.271-27.433h4.345l-2.689,2.849c-4.242,4.915-5.761,13.754-5.761,13.754a10.362,10.362,0,0,1,2.888-3.3c1.65-1.031,4.332-5.363,4.332-5.363s0-.928-1.856,6.292,1.134,19.6,1.134,19.6-.413-.825,2.991-4.332,4.057-11.345,4.057-11.345c2.1,2.475,2.235,6.511,2.235,6.511a31.7,31.7,0,0,0,2.131-7l2.124.006Z" transform="translate(-182.91 -160.705)" fill="#071e30"/>
        <path id="Path_25013" data-name="Path 25013" d="M196.38,241.233c-1.888,1.633-9.36,2.266-9.36,2.266,4.3-4.549,2.871-8.8,2.871-8.8-5.435,4.158-14.983,1.131-14.983,1.131s1.616.294,4.554-1.131a12.887,12.887,0,0,1,5.875-1.219c-2.056-.147-3.525-1.028-8.079-3.125s-12.632,0-12.632,0c9.107-28.83,21.005-32.141,21.005-32.141-2.5-1.775-8.226,0-8.226,0C201.2,179.4,225.929,179.5,225.929,179.5l4.835-.792.577-2.574s-45.268.943-61.867,28.412a15.57,15.57,0,0,1,8.079-3.232s-15.864,15.864-16.011,34.079c0,0,8.96-5.435,16.158-1.909a45.456,45.456,0,0,1-7.785,1.219s3.806,5.839,17.333,3.922c0,0-3.085,6.023-6.9,8.373,0,0,13.683-.993,16.387-3.246l2.3-1.806Z" transform="translate(-161.542 -107.559)" fill="#071e30"/>
        <path id="Path_25014" data-name="Path 25014" d="M338.11,193.892s4.2-.712,10.393-5.909a17.3,17.3,0,0,1,13.735-3.559,31,31,0,0,0-4.195,5.766c-1.637,3.061-4.539,6.906-14.264,4.77C340.174,194.177,338.11,193.892,338.11,193.892Z" transform="translate(-230.329 -110.694)" fill="#071e30"/>
        <path id="Path_25015" data-name="Path 25015" d="M347.4,194.676a23.629,23.629,0,0,0,6.4-4.413,11.227,11.227,0,0,1,8.723-3.132,48.452,48.452,0,0,0-3.559,5.054C357.745,194.32,351.142,196.243,347.4,194.676Z" transform="translate(-233.946 -111.835)" fill="#e0e0e0"/>
        <path id="Path_25016" data-name="Path 25016" d="M235.369,210.875s7.043-28.4,48.3-48.413a14.689,14.689,0,0,1-5.052-.567,30.147,30.147,0,0,0,9.028-3c4.8-2.467,8.042-2.056,8.042-2.056a18.652,18.652,0,0,1-4.068-.88s5.272-.765,9.147-1.314c0,0-2.979-.548-3.253-1.37,0,0,11.239.317,14.665-2.445a146.645,146.645,0,0,1-24.534,14.047c-14.8,6.764-40.752,23.965-46.536,44.511" transform="translate(-190.303 -97.704)" fill="#071e30"/>
        <path id="Path_25017" data-name="Path 25017" d="M230.482,291.782s3.716,24.989,31.4,33.761l2.834,7.023L251.136,325.2,231.81,306.2l-7.538-15-2.746-3.453v-2.588l2.9-1.225,5.549,1.225v2.588" transform="translate(-184.91 -149.56)" fill="#071e30"/>
        <path id="Path_25018" data-name="Path 25018" d="M286.572,334.912s-.392-.123-1.531-3.505,5.015-2.872,5.015-2.872l1.152.835s2.893,4.39,4.2,7.078c0,0,14.188.461,24.651-12.831s15.994-14.675,15.994-14.675l15.21-.944s-11.522-.8-22.2,14.518-15.521,18.006-23.972,20c0,0,10.987-.335,20.13-7.082s11.832-7.823,14.137-7.593c0,0-4,.077-13.907,11.679-5.391,6.147-9.576,6.454-13.278,7.069,0,0,8.284,1.152,10.973,8.3s2.228,18.133,2.228,18.133,1.152-22.435-14.214-23.357c0,0,3.381,4.764,2.536,14.983s.789,20.087,13,27.177-4.313-.977-4.313-.977l-14.719-13.764s1.119-11.975-5.027-19.735-11.118-10.015-11.118-10.015Z" transform="translate(-209.6 -158.928)" fill="#071e30"/>
        <path id="Path_25019" data-name="Path 25019" d="M348.029,187.75s4.719-4.363,9.458-4.639A9.354,9.354,0,0,0,348.029,187.75Z" transform="translate(-234.193 -110.245)" fill="#071e30"/>
        <path id="Path_25020" data-name="Path 25020" d="M330.746,319.743l-2.4.817-2.974,3.428v2.53l5.137-2.53" transform="translate(-225.365 -163.507)" fill="#071e30"/>
        <path id="Path_25021" data-name="Path 25021" d="M218.017,268.156c-.025.028-.053.056-.078.084-.273.295-.533.583-.771.868l.777-.952Z" transform="translate(-183.213 -143.41)" fill="#071e30"/>
      </g>
    </g>
  </g>
</svg>
