<svg xmlns="http://www.w3.org/2000/svg" width="68.194" height="67.85" viewBox="0 0 68.194 67.85">
  <g id="magic_wand" data-name="magic wand" transform="translate(0.001)">
    <rect id="Rectangle_9" data-name="Rectangle 9" width="8.736" height="39.102" transform="translate(27.648 34.023) rotate(45)" fill="#fff"/>
    <rect id="Rectangle_10" data-name="Rectangle 10" width="8.736" height="9.606" transform="matrix(0.707, 0.707, -0.707, 0.707, 36.059, 25.616)" fill="#fff"/>
    <path id="Path_2095" data-name="Path 2095" d="M49.625,13.594l2.893,2.5,3.7-.966-1.483,3.526L56.8,21.875l-3.809-.323-2.426,2.956-.873-3.723L46.127,19.39,49.4,17.411Z" transform="translate(-14.671 -4.324)" fill="#fff"/>
    <path id="Path_2096" data-name="Path 2096" d="M90.761,2.095,88.587,7.773l3.445,5.011-6.071-.313-3.7,4.823-1.577-5.871L74.949,9.4l5.1-3.316L80.2,0l4.73,3.824Z" transform="translate(-23.839)" fill="#fff"/>
    <path id="Path_2097" data-name="Path 2097" d="M82.271,35.042l-.047,2.364,1.922,1.38-2.264.686-.719,2.253-1.351-1.941-2.366.014,1.428-1.886-.744-2.246,2.236.777Z" transform="translate(-24.633 -11.145)" fill="#fff"/>
  </g>
</svg>
