<svg xmlns="http://www.w3.org/2000/svg" width="95" height="92" viewBox="0 0 95 92">
  <g id="solutions_bulg" data-name="solutions bulg" transform="translate(-2111.5 -1176)">
    <g id="Group_728" data-name="Group 728" transform="translate(2109 1172)">
      <path id="Path_2110" data-name="Path 2110" d="M50,21.2a3.8,3.8,0,0,0,3.8-3.8V7.8a3.8,3.8,0,1,0-7.6,0v9.6A3.8,3.8,0,0,0,50,21.2Z" fill="#fff"/>
      <path id="Path_2111" data-name="Path 2111" d="M29.7,27.4a3.864,3.864,0,0,0-1.1-2.7l-6.8-6.8a3.8,3.8,0,0,0-5.4,0,3.864,3.864,0,0,0,0,5.4l6.8,6.8a3.8,3.8,0,0,0,6.5-2.7Z" fill="#fff"/>
      <path id="Path_2112" data-name="Path 2112" d="M15.9,47.7H6.3a3.8,3.8,0,1,0,0,7.6h9.6a3.8,3.8,0,1,0,0-7.6Z" fill="#fff"/>
      <path id="Path_2113" data-name="Path 2113" d="M93.7,47.7H84.1a3.8,3.8,0,1,0,0,7.6h9.6a3.8,3.8,0,1,0,0-7.6Z" fill="#fff"/>
      <path id="Path_2114" data-name="Path 2114" d="M84.7,20.6a3.864,3.864,0,0,0-1.1-2.7,3.8,3.8,0,0,0-5.4,0l-6.8,6.8a3.818,3.818,0,0,0,5.4,5.4l6.8-6.8A3.864,3.864,0,0,0,84.7,20.6Z" fill="#fff"/>
      <path id="Path_2115" data-name="Path 2115" d="M64.6,33.2a23.643,23.643,0,0,0-14.7-5.1,20.971,20.971,0,0,0-5.6.7,23.476,23.476,0,0,0-8.7,41.5,4.535,4.535,0,0,1,1.6,3.6v3H62.7V73.7a4.358,4.358,0,0,1,1.5-3.4,23.3,23.3,0,0,0,9.3-18.6A23.021,23.021,0,0,0,64.6,33.2Zm-5,16.6-9.4,9.4a3.139,3.139,0,0,1-4.4,0L40.4,54a3.182,3.182,0,0,1,4.5-4.5L48,52.6l7.2-7.2a3.262,3.262,0,0,1,4.5,0A3.052,3.052,0,0,1,59.6,49.8Z" fill="#fff"/>
      <path id="Path_2116" data-name="Path 2116" d="M37.3,88a3.372,3.372,0,0,0,3.4,3.4H45l.4,1.1a4.773,4.773,0,0,0,9.2,0l.4-1.1h4.3A3.372,3.372,0,0,0,62.7,88V83.2H37.3Z" fill="#fff"/>
    </g>
  </g>
</svg>
