<svg xmlns="http://www.w3.org/2000/svg" width="76.121" height="68.022" viewBox="0 0 76.121 68.022">
  <g id="twitter" transform="translate(-4.5 -5.998)">
    <g id="Group_729" data-name="Group 729" transform="translate(4.5 5.998)">
      <path id="Path_2117" data-name="Path 2117" d="M53.089,1028.36a1.638,1.638,0,0,0-.607.12,19.386,19.386,0,0,0-13.16,5.6c-5.384,5.4-11.326,12.145-18.019,12.171-5.059.032-10.131.039-15.191.058a1.62,1.62,0,0,0-1.613,1.626,34.011,34.011,0,0,0,67.962,1.891c.037-.622.063-1.379.063-2.024,0-.032,0-.045,0-.071-.274-6.662-3.041-11.558-6.795-14.689a20.684,20.684,0,0,0-12.185-4.605,1.561,1.561,0,0,0-.272-.065c-.038,0-.076,0-.114,0a.024.024,0,0,0-.019,0h-.051Zm-.026,3.245a17.74,17.74,0,0,1,10.591,3.923c3.1,2.587,5.388,6.479,5.631,12.329,0,0,0,0,0,0,0,.536-.032,1.221-.063,1.765a30.752,30.752,0,0,1-61.4-.089c4.407,0,9.076-.032,13.495-.052,8.729-.036,15.074-7.885,20.3-13.127a16.132,16.132,0,0,1,11.451-4.757Z" transform="translate(-4.5 -1021.882)" fill="#fff"/>
      <path id="Path_2118" data-name="Path 2118" d="M37.407,1036.444a1.62,1.62,0,0,0-1.613,1.626,14.568,14.568,0,0,1-21.846,12.474,1.62,1.62,0,1,0-1.62,2.8A17.814,17.814,0,0,0,39.033,1038.1a1.62,1.62,0,0,0-1.626-1.658Z" transform="translate(11.087 -1003.794)" fill="#fff"/>
      <path id="Path_2119" data-name="Path 2119" d="M25.178,1031.11,24,1034.128l7.668,3-5.605,3.346,1.664,2.783,8.44-5.042a1.619,1.619,0,0,0-.24-2.9Z" transform="translate(39.166 -1015.724)" fill="#fff" fill-rule="evenodd"/>
      <path id="Path_2120" data-name="Path 2120" d="M15.595,1044.36A1.62,1.62,0,0,0,14,1046v6.434a1.62,1.62,0,0,0,3.239,0V1046a1.62,1.62,0,0,0-1.645-1.645Z" transform="translate(16.773 -986.055)" fill="#fff" fill-rule="evenodd"/>
      <path id="Path_2121" data-name="Path 2121" d="M14.62,1046.36a1.619,1.619,0,1,0,0,3.239h9.693a1.62,1.62,0,1,0,0-3.239Z" transform="translate(14.534 -981.577)" fill="#fff" fill-rule="evenodd"/>
      <path id="Path_2122" data-name="Path 2122" d="M23.55,1031.36a4.049,4.049,0,1,0,4.049,4.049A4.074,4.074,0,0,0,23.55,1031.36Zm0,3.239a.81.81,0,1,1-.81.81A.786.786,0,0,1,23.55,1034.6Z" transform="translate(29.089 -1015.164)" fill="#fff"/>
      <path id="Path_2123" data-name="Path 2123" d="M19.378,1026.36a1.62,1.62,0,1,0,0,3.239,3.193,3.193,0,0,1,3.214,3.22,1.62,1.62,0,0,0,3.239,0A6.482,6.482,0,0,0,19.378,1026.36Z" transform="translate(25.188 -1026.36)" fill="#fff"/>
      <path id="Path_2124" data-name="Path 2124" d="M25.7,1026.36a6.481,6.481,0,0,0-6.453,6.459,1.62,1.62,0,0,0,3.239,0,3.193,3.193,0,0,1,3.214-3.22,1.619,1.619,0,1,0,0-3.239Z" transform="translate(28.529 -1026.36)" fill="#fff"/>
    </g>
  </g>
</svg>
